<svg width="474" height="58" viewBox="0 0 474 58" fill="none" xmlns="http://www.w3.org/2000/svg">
<g clip-path="url(#clip0_80_10)">
<g clip-path="url(#clip1_80_10)">
<g clip-path="url(#clip2_80_10)">
<g clip-path="url(#clip3_80_10)">
<path d="M67.4928 9.37808C67.4928 6.78889 66.6505 4.68994 65.6114 4.68994C64.5723 4.68994 63.73 6.78889 63.73 9.37808V49.7551C63.73 52.3443 64.5723 54.4433 65.6114 54.4433C66.6505 54.4433 67.4928 52.3443 67.4928 49.7551V9.37808Z" fill="#C9E3C8"/>
<g clip-path="url(#clip4_80_10)">
<g clip-path="url(#clip5_80_10)">
<g clip-path="url(#clip6_80_10)">
<g clip-path="url(#clip7_80_10)">
<path d="M77.3626 9.59034H103.485L102.842 14.0036H92.9657V49.5417H87.5309V14.0036H77.3626V9.59034ZM134.223 49.5417H128.788V30.7855H114.179V49.5417H108.744V9.59034H114.179V26.3722H128.788V9.59034H134.223V49.5417ZM144.158 9.59034H164.144L163.501 13.7713H149.593V26.9529H161.689V31.1339H149.593V45.3027H164.319V49.5417H144.158V9.59034ZM198.611 8.83545C200.715 8.83545 202.546 9.15289 204.104 9.78778C205.662 10.4304 207.201 11.4292 208.721 12.7841L205.916 16.036C204.786 15.0682 203.668 14.352 202.561 13.8874C201.447 13.4229 200.228 13.1906 198.903 13.1906C195.864 13.1906 193.449 14.4759 191.657 17.0464C189.864 19.6246 188.968 23.7785 188.968 29.5079C188.968 35.0826 189.864 39.1938 191.657 41.8418C193.449 44.4974 195.864 45.8253 198.903 45.8253C200.422 45.8253 201.727 45.5543 202.818 45.0123C203.909 44.4704 205.097 43.6767 206.383 42.6315L209.13 45.8253C206.208 48.8062 202.701 50.2966 198.611 50.2966C195.611 50.2966 192.954 49.5223 190.64 47.9738C188.318 46.4253 186.506 44.091 185.205 40.9707C183.896 37.8582 183.241 34.0373 183.241 29.5079C183.241 25.0173 183.915 21.2235 185.263 18.1265C186.604 15.0295 188.435 12.7067 190.757 11.1582C193.071 9.6097 195.689 8.83545 198.611 8.83545ZM240.336 49.5417H234.726L232.038 39.3797H218.538L215.85 49.5417H210.415L222.045 9.59034H228.707L240.336 49.5417ZM225.317 13.8874L219.649 35.1406H230.927L225.317 13.8874ZM241.388 9.59034H267.51L266.867 14.0036H256.991V49.5417H251.556V14.0036H241.388V9.59034ZM286.491 9.59034H291.925V44.9543H306.593L306.009 49.5417H286.491V9.59034ZM325.761 8.83545C330.553 8.83545 334.32 10.5853 337.063 14.0849C339.814 17.5922 341.189 22.7526 341.189 29.566C341.189 36.2633 339.825 41.3927 337.098 44.9543C334.371 48.5158 330.592 50.2966 325.761 50.2966C320.969 50.2966 317.198 48.5429 314.447 45.0356C311.705 41.5359 310.333 36.3988 310.333 29.6241C310.333 25.1721 310.965 21.3861 312.227 18.2658C313.497 15.1533 315.289 12.8035 317.603 11.2163C319.925 9.62906 322.644 8.83545 325.761 8.83545ZM325.761 13.1325C319.294 13.1325 316.06 18.6297 316.06 29.6241C316.06 40.5023 319.294 45.9414 325.761 45.9414C328.956 45.9414 331.371 44.6446 333.008 42.0508C334.644 39.4571 335.462 35.2955 335.462 29.566C335.462 23.8753 334.632 19.7137 332.972 17.0812C331.321 14.4488 328.917 13.1325 325.761 13.1325ZM374.148 9.59034V37.8118C374.148 41.4895 373.038 44.4897 370.817 46.8125C368.597 49.1352 365.421 50.2966 361.292 50.2966C357.123 50.2966 353.948 49.143 351.766 46.8357C349.585 44.5362 348.494 41.5282 348.494 37.8118V9.59034H353.929V37.4634C353.929 43.0767 356.383 45.8834 361.292 45.8834C366.201 45.8834 368.655 43.0767 368.655 37.4634V9.59034H374.148ZM408.966 9.59034V49.5417H401.953L387.636 15.223C388.103 20.3331 388.337 25.3076 388.337 30.1467V49.5417H383.428V9.59034H390.382L404.758 43.9671C404.603 42.6121 404.439 40.7539 404.267 38.3925C404.088 36.031 403.999 33.6889 403.999 31.3662V9.59034H408.966ZM432.867 8.83545C435.127 8.83545 437.106 9.1916 438.805 9.90391C440.495 10.624 442.159 11.7195 443.795 13.1906L440.873 16.2102C439.549 15.1262 438.283 14.3404 437.075 13.8526C435.867 13.3726 434.504 13.1325 432.984 13.1325C429.945 13.1325 427.452 14.4178 425.504 16.9883C423.556 19.5666 422.582 23.7398 422.582 29.5079C422.582 35.3923 423.4 39.6003 425.036 42.1321C426.673 44.6717 429.127 45.9414 432.4 45.9414C434.815 45.9414 436.997 45.3607 438.945 44.1994V31.7146H432.809L432.224 27.4755H444.204V46.6963C440.503 49.0965 436.568 50.2966 432.4 50.2966C427.413 50.2966 423.576 48.5623 420.887 45.0936C418.199 41.6327 416.855 36.4181 416.855 29.4499C416.855 24.9592 417.576 21.1654 419.017 18.0684C420.459 14.9714 422.399 12.6564 424.838 11.1234C427.269 9.59808 429.945 8.83545 432.867 8.83545ZM452.386 9.59034H472.372L471.729 13.7713H457.82V26.9529H469.917V31.1339H457.82V45.3027H472.547V49.5417H452.386V9.59034Z" fill="#C9E3C8"/>
</g>
</g>
</g>
</g>
<g clip-path="url(#clip8_80_10)">
<g clip-path="url(#clip9_80_10)">
<path d="M50.4961 1.08869C50.2649 1.19398 49.658 1.73006 48.9836 2.41928C47.7023 3.74031 47.0858 4.19023 46.2573 4.40083C44.9279 4.73587 43.8296 4.49655 41.4501 3.31911C40.0725 2.63946 39.7257 2.49587 39.3307 2.49587C38.8972 2.48629 38.8298 2.51501 38.6371 2.80219C38.3577 3.20424 38.2614 3.95091 38.3481 5.06134C38.4252 6.27707 38.6757 7.29177 39.4656 9.67536C40.2363 12.0111 40.4386 12.8343 40.4579 13.7342C40.4771 14.634 40.2748 15.2275 39.8124 15.6966C39.2826 16.2135 38.8202 16.3571 36.431 16.7496C32.751 17.3622 30.3715 18.061 28.1076 19.181C23.6183 21.4114 20.2369 25.3841 18.1272 30.9171C17.5877 32.3338 17.1927 33.6453 16.3353 36.8808C15.2178 41.1024 15.1215 41.313 13.4067 43.0935C11.1813 45.4101 9.49546 46.4918 5.59385 48.1C3.59006 48.9233 2.72304 49.4019 2.08722 50.0145C1.22983 50.8378 0.902288 51.6323 0.777051 53.1256C0.632547 54.9349 1.65371 56.4091 3.82127 57.5195C4.27405 57.7492 4.9195 58.0173 5.26631 58.1034C6.16224 58.3332 6.90402 58.1992 6.90402 57.8067C6.90402 57.7301 6.45124 57.194 5.90213 56.6101C4.50526 55.1455 4.16808 54.3701 4.53416 53.4128C4.8328 52.6566 6.1526 51.6227 7.72288 50.9239C8.4743 50.5889 12.8961 48.8371 13.8884 48.4733C16.3835 47.5639 17.4721 47.6022 18.7534 48.6744L19.2158 49.0573L28.6374 49.0381L38.0687 49.0094L38.0398 48.2915C37.9531 46.4248 37.4618 46.0515 34.9089 45.9079C34.1864 45.8696 33.5602 45.8121 33.5409 45.7834C33.4542 45.7068 33.83 44.8262 34.4561 43.6009C35.5736 41.4279 37.1054 39.3602 37.982 38.8528C38.377 38.6231 38.483 38.6039 39.2055 38.6422C40.1111 38.6901 40.6216 38.9007 41.0841 39.4272C41.4694 39.8675 41.5754 40.2313 41.7295 41.6959C41.8258 42.5862 41.9318 43.0935 42.1534 43.6487C43.2516 46.4727 46.527 49.5933 48.3574 49.5455C48.9836 49.5359 49.263 49.3444 49.6098 48.6744C49.9181 48.0713 49.9566 47.3916 49.7158 46.9226C49.6291 46.7503 49.1281 46.1759 48.6175 45.6398C46.3344 43.285 45.6311 41.4183 45.6311 37.7041C45.6311 33.9325 46.3729 31.166 48.001 28.8877C48.2322 28.5622 49.0125 27.6624 49.735 26.8774C52.0375 24.379 52.4902 23.4121 52.4902 21.0094C52.4806 19.6214 52.3843 18.8843 51.9797 17.3909C51.2957 14.8159 51.5269 13.5714 52.9719 11.9632C53.9546 10.8624 54.0413 10.4795 53.6945 8.65108C53.3091 6.6504 53.1646 5.76971 52.9623 4.01792C52.7022 1.81621 52.5095 1.328 51.8255 1.04082C51.4016 0.858944 50.9585 0.87809 50.4961 1.08869Z" fill="#C9E3C8"/>
</g>
</g>
</g>
</g>
</g>
</g>
<defs>
<clipPath id="clip0_80_10">
<rect width="473.2" height="56.895" fill="white" transform="translate(0.349976 0.916504)"/>
</clipPath>
<clipPath id="clip1_80_10">
<rect width="473.2" height="56.895" fill="white" transform="translate(0.0632324 1.11865)"/>
</clipPath>
<clipPath id="clip2_80_10">
<rect width="471.799" height="57.2993" fill="white" transform="translate(0.763611 0.916504)"/>
</clipPath>
<clipPath id="clip3_80_10">
<rect width="471.799" height="57.2993" fill="white" transform="translate(0.763611 0.916504)"/>
</clipPath>
<clipPath id="clip4_80_10">
<rect width="395.22" height="41.4611" fill="white" transform="translate(77.343 8.83545)"/>
</clipPath>
<clipPath id="clip5_80_10">
<rect width="395.22" height="41.4611" fill="white" transform="translate(77.343 8.83545)"/>
</clipPath>
<clipPath id="clip6_80_10">
<rect width="395.22" height="41.4611" fill="white" transform="translate(77.343 8.83545)"/>
</clipPath>
<clipPath id="clip7_80_10">
<rect width="395.22" height="41.4611" fill="white" transform="translate(77.343 8.83545)"/>
</clipPath>
<clipPath id="clip8_80_10">
<rect width="53.1161" height="57.2993" fill="white" transform="translate(0.763611 0.916504)"/>
</clipPath>
<clipPath id="clip9_80_10">
<rect width="53.1161" height="57.2993" fill="white" transform="translate(0.763611 0.916504)"/>
</clipPath>
</defs>
</svg>
