<?xml version="1.0" standalone="no"?>
<!DOCTYPE svg PUBLIC "-//W3C//DTD SVG 20010904//EN"
 "http://www.w3.org/TR/2001/REC-SVG-20010904/DTD/svg10.dtd">
<svg version="1.0" xmlns="http://www.w3.org/2000/svg"
 width="1000.000000pt" height="121.000000pt" viewBox="0 0 1000.000000 121.000000"
 preserveAspectRatio="xMidYMid meet">

<g transform="translate(0.000000,121.000000) scale(0.100000,-0.100000)"
fill="#223123" stroke="none">
<path d="M1028 1175 c-45 -42 -88 -46 -149 -14 -23 11 -47 18 -55 15 -20 -8
-17 -59 6 -136 24 -77 25 -123 5 -140 -8 -6 -53 -20 -100 -31 -107 -23 -177
-57 -238 -117 -63 -61 -99 -126 -132 -237 -45 -153 -54 -172 -102 -215 -25
-23 -83 -60 -129 -81 -93 -44 -114 -66 -114 -120 0 -30 7 -43 35 -68 20 -17
47 -31 60 -31 31 0 31 5 0 42 -14 16 -25 36 -25 43 0 23 58 63 137 93 113 44
129 47 158 28 20 -13 57 -16 220 -16 l196 0 -3 27 c-2 23 -10 29 -43 37 -22 5
-41 10 -43 11 -7 6 41 91 66 118 45 48 102 30 102 -33 0 -34 36 -94 79 -133
44 -39 60 -44 79 -25 19 19 15 34 -23 83 -44 58 -59 113 -51 193 7 77 31 131
89 201 52 61 63 104 48 171 -16 69 -13 97 13 138 24 37 24 38 10 122 -7 46
-16 90 -18 97 -9 22 -40 14 -78 -22z"/>
<path d="M1360 1111 c-14 -27 -14 -985 0 -1012 14 -24 36 -24 50 0 14 27 14
985 0 1012 -6 10 -17 19 -25 19 -8 0 -19 -9 -25 -19z"/>
<path d="M4095 1028 c-53 -19 -112 -66 -144 -115 -53 -79 -75 -170 -76 -303 0
-207 55 -338 172 -407 53 -31 170 -43 239 -24 40 11 124 64 124 79 0 4 -10 20
-23 36 l-23 28 -57 -32 c-51 -29 -65 -32 -116 -28 -106 8 -169 84 -192 230
-14 88 -6 233 16 306 17 57 62 115 106 138 45 23 129 18 184 -11 50 -27 64
-24 86 17 25 46 -78 98 -191 97 -41 0 -88 -5 -105 -11z"/>
<path d="M6755 1016 c-139 -66 -204 -221 -192 -460 8 -169 53 -275 141 -335
59 -40 99 -51 185 -51 180 0 284 115 312 344 14 110 1 242 -31 328 -27 73 -91
145 -155 174 -71 34 -189 34 -260 0z m217 -82 c36 -19 63 -55 89 -122 20 -50
22 -76 23 -207 0 -120 -4 -160 -18 -200 -38 -105 -90 -145 -189 -145 -62 0
-108 25 -144 79 -39 58 -48 107 -48 266 0 159 9 208 47 265 56 81 153 107 240
64z"/>
<path d="M9050 1031 c-73 -22 -149 -91 -189 -170 -69 -135 -67 -392 5 -538 54
-111 147 -158 298 -151 77 3 102 9 152 33 l59 30 3 208 2 207 -123 0 -123 0 5
-42 6 -43 68 -3 67 -3 0 -129 0 -130 -27 -17 c-18 -12 -52 -19 -103 -21 -66
-3 -79 -1 -110 20 -82 56 -105 124 -105 318 0 116 4 156 19 198 19 55 63 114
100 134 63 34 161 27 227 -17 l37 -24 28 31 29 30 -34 29 c-19 15 -55 35 -79
44 -47 16 -168 19 -212 6z"/>
<path d="M1630 985 l0 -45 110 0 110 0 0 -380 0 -380 55 0 55 0 0 380 0 380
104 0 c113 0 116 2 116 61 l0 29 -275 0 -275 0 0 -45z"/>
<path d="M2300 605 l0 -425 55 0 55 0 0 200 0 200 155 0 155 0 0 -200 0 -200
55 0 55 0 0 425 0 425 -55 0 -55 0 0 -180 0 -180 -155 0 -155 0 0 180 0 180
-55 0 -55 0 0 -425z"/>
<path d="M3050 605 l0 -425 210 0 210 0 0 45 0 45 -155 0 -155 0 0 150 0 150
125 0 125 0 0 45 0 45 -125 0 -125 0 0 140 0 140 145 0 145 0 5 28 c15 68 35
62 -196 62 l-209 0 0 -425z"/>
<path d="M4686 1013 c-39 -133 -236 -822 -236 -827 0 -3 25 -6 55 -6 l54 0 11
43 c6 23 19 71 29 107 l18 65 143 0 143 0 18 -65 c9 -36 22 -84 28 -107 l12
-43 58 0 57 0 -122 423 -122 422 -70 3 c-61 2 -71 0 -76 -15z m136 -305 l55
-213 -115 -3 c-63 -1 -116 -1 -118 0 -5 6 110 428 116 428 4 0 32 -96 62 -212z"/>
<path d="M5100 985 l0 -44 108 -3 107 -3 3 -377 2 -378 55 0 55 0 0 380 0 380
105 0 c82 0 105 3 105 14 0 7 3 28 6 45 l7 31 -277 0 -276 0 0 -45z"/>
<path d="M6050 605 l0 -425 204 0 c113 0 207 3 209 8 3 4 7 25 9 47 l3 40
-153 3 -152 3 0 374 0 375 -60 0 -60 0 0 -425z"/>
<path d="M7362 693 c3 -383 5 -392 86 -465 49 -45 94 -58 192 -58 120 1 192
42 236 135 24 49 24 54 24 388 l0 337 -55 0 -55 0 0 -317 c0 -179 -4 -334 -10
-354 -5 -19 -23 -48 -40 -64 -24 -23 -41 -30 -89 -33 -79 -6 -127 17 -152 72
-17 37 -19 71 -19 369 l0 327 -61 0 -61 0 4 -337z"/>
<path d="M8100 605 l0 -425 51 0 51 0 -4 359 c-2 198 0 354 3 348 3 -7 71
-168 149 -359 l144 -348 73 0 73 0 0 425 0 425 -51 0 -51 0 4 -358 3 -359
-149 359 -149 358 -73 0 -74 0 0 -425z"/>
<path d="M9560 605 l0 -425 210 0 210 0 0 45 0 45 -155 0 -155 0 0 150 0 150
130 0 130 0 0 45 0 45 -130 0 -130 0 0 140 0 140 150 0 c149 0 150 0 150 23 0
12 3 32 6 45 l6 22 -211 0 -211 0 0 -425z"/>
</g>
</svg>
