<svg width="250" height="250" viewBox="0 0 250 250" fill="none" xmlns="http://www.w3.org/2000/svg">
<g clip-path="url(#clip0_37_1868)">
<path d="M250 0H0V250H250V0Z" fill="#D7F8E5"/>
<path opacity="0.3" d="M189.067 39.3944H65.2222C62.6203 39.3944 60.5111 41.5036 60.5111 44.1055V200.017C60.5111 202.618 62.6203 204.728 65.2222 204.728H189.067C191.669 204.728 193.778 202.618 193.778 200.017V44.1055C193.778 41.5036 191.669 39.3944 189.067 39.3944Z" fill="#333333"/>
<path d="M185.978 35.9445H62.1334C59.5315 35.9445 57.4222 38.0537 57.4222 40.6556V196.567C57.4222 199.169 59.5315 201.278 62.1334 201.278H185.978C188.58 201.278 190.689 199.169 190.689 196.567V40.6556C190.689 38.0537 188.58 35.9445 185.978 35.9445Z" fill="#2E2836"/>
<path d="M182.439 45.4889H65.9944V192.6H182.439V45.4889Z" fill="white"/>
<path d="M161.161 29.4333H149.272C144.356 29.4333 139.789 26.7722 137.461 22.4388C136.856 21.3111 136.344 20.1444 135.95 18.9388C133.983 12.9722 132.861 8.06663 125.061 7.66663C117.261 8.06663 116.139 12.9722 114.172 18.9388C113.778 20.1444 113.267 21.3111 112.661 22.4388C110.339 26.7722 105.767 29.4333 100.85 29.4333H89.3667C85.65 29.4333 82.6334 32.4444 82.6334 36.1666V48.8111L125.261 48.9888L167.889 48.8111V36.1666C167.889 32.45 164.878 29.4333 161.156 29.4333H161.161ZM125.061 21.4C122.583 21.4 120.572 19.3888 120.572 16.9111C120.572 14.4333 122.583 12.4222 125.061 12.4222C127.539 12.4222 129.55 14.4333 129.55 16.9111C129.55 19.3888 127.539 21.4 125.061 21.4Z" fill="#C4C4C4"/>
<path d="M172.833 71.7888H77.5444V73.661H172.833V71.7888Z" fill="#0C120C"/>
<path d="M172.833 66.2H91.6667V68.0722H172.833V66.2Z" fill="#0C120C"/>
<path d="M172.833 77.4388H77.5444V79.3111H172.833V77.4388Z" fill="#0C120C"/>
<path d="M113.889 83.0833H77.5444V84.9555H113.889V83.0833Z" fill="#0C120C"/>
<path d="M172.833 88.7333H77.5444V90.6055H172.833V88.7333Z" fill="#0C120C"/>
<path d="M172.833 94.3833H77.5444V96.2555H172.833V94.3833Z" fill="#0C120C"/>
<path d="M172.833 100.033H77.5444V101.906H172.833V100.033Z" fill="#0C120C"/>
<path d="M172.556 105.683H77.5444V107.556H172.556V105.683Z" fill="#0C120C"/>
<path d="M172.833 111.333H113.889V113.205H172.833V111.333Z" fill="#0C120C"/>
<path d="M172.833 116.978H77.5444V118.85H172.833V116.978Z" fill="#0C120C"/>
<path d="M172.833 122.628H77.5444V124.5H172.833V122.628Z" fill="#0C120C"/>
<path d="M172.222 128.278H77.5444V130.15H172.222V128.278Z" fill="#0C120C"/>
<path d="M172.833 133.928H113.889V135.8H172.833V133.928Z" fill="#0C120C"/>
<path d="M172.833 139.578H77.5444V141.45H172.833V139.578Z" fill="#0C120C"/>
<path d="M172.833 145.228H77.5444V147.1H172.833V145.228Z" fill="#0C120C"/>
<path d="M141.35 150.872H77.5444V152.744H141.35V150.872Z" fill="#0C120C"/>
<path d="M172.833 156.522H113.889V158.394H172.833V156.522Z" fill="#0C120C"/>
<path d="M172.833 162.172H77.5444V164.044H172.833V162.172Z" fill="#0C120C"/>
<path d="M172.833 167.822H77.5444V169.694H172.833V167.822Z" fill="#0C120C"/>
<path d="M125.189 173.472H77.5444V175.344H125.189V173.472Z" fill="#0C120C"/>
<path d="M167.894 48.1777H82.6334V49.4444H167.894V48.1777Z" fill="#656666"/>
<path d="M142.272 175.311C140.844 178.072 139.389 180.778 137.383 183.167C136.306 184.45 134.978 185.472 133.55 186.333C132.683 186.856 127.35 189.139 127.55 186.106C127.611 185.144 126.122 185.15 126.061 186.106C125.783 190.339 131.206 189.017 133.544 188.017C138.472 185.9 141.233 180.544 143.556 176.061C143.994 175.211 142.711 174.456 142.267 175.311H142.272Z" fill="black"/>
<path d="M129.844 183.706C136.978 182.272 144.117 180.861 151.239 179.372C154.756 178.639 158.261 177.872 161.761 177.078C163.511 176.678 165.256 176.267 167 175.85C168.044 175.6 169.094 175.339 170.139 175.078C170.489 174.989 170.833 174.9 171.183 174.817C172.144 174.917 172.528 174.517 172.322 173.611C172.661 173.7 173 173.789 173.344 173.878C173.317 173.828 173.289 173.783 173.261 173.733C172.778 172.906 171.489 173.656 171.972 174.483C172 174.533 172.028 174.578 172.056 174.628C172.278 175.006 172.706 175.061 173.078 174.894C173.583 174.672 173.661 174.417 173.728 173.894C173.772 173.55 173.461 173.283 173.183 173.178C172.322 172.85 171.694 173.144 170.789 173.378C168.7 173.911 166.611 174.417 164.511 174.917C160.667 175.828 156.811 176.672 152.95 177.494C145.133 179.161 137.283 180.7 129.45 182.272C128.506 182.461 128.906 183.9 129.844 183.711V183.706Z" fill="black"/>
<path d="M141.356 186.111C145.156 185.867 148.467 184.461 151.272 181.889L150.1 180.983C149.639 182.044 149.406 182.944 149.306 184.094C149.272 184.494 149.672 184.844 150.05 184.839C152.767 184.811 155.039 183.756 156.761 181.639C156.461 181.678 156.161 181.717 155.856 181.756C157.05 182.433 157.972 182.4 159.256 181.917C160 181.639 160.678 181.072 161.339 180.644C162.089 180.156 162.617 181.267 163.056 181.522C164.161 182.172 165.433 181.622 166.356 180.961C166.589 180.783 166.817 180.594 167.033 180.394C168.489 180.944 168.722 181.533 167.744 182.172C166.833 183.133 165.733 183.861 164.6 184.528C163.772 185.011 164.522 186.3 165.35 185.817C166.978 184.861 174.189 179.022 168.9 178.089C166.861 177.728 164.761 181.317 163 179.072C161.728 177.456 158.417 181.511 156.606 180.478C156.339 180.322 155.911 180.333 155.7 180.594C154.233 182.394 152.389 183.333 150.044 183.361L150.789 184.106C150.983 183.317 151.183 182.533 151.378 181.744C151.706 180.989 150.867 180.239 150.206 180.839C147.694 183.139 144.744 184.406 141.344 184.622C140.389 184.683 140.383 186.172 141.344 186.111H141.356Z" fill="black"/>
<path d="M120.872 10.4833C120.872 10.4833 120.706 10.6111 120.389 10.8555C120.083 11.1055 119.656 11.4999 119.189 12.0666C118.722 12.6333 118.244 13.3944 117.844 14.3333C117.439 15.2722 117.1 16.3777 116.772 17.5999C116.611 18.2166 116.444 18.8555 116.272 19.5166C116.089 20.2055 115.872 20.8555 115.644 21.5611C115.111 22.9555 114.472 24.3888 113.539 25.7222C113.333 26.0722 113.044 26.3722 112.794 26.6999L112.406 27.1888C112.272 27.3499 112.117 27.4888 111.972 27.6388C111.672 27.9333 111.389 28.2499 111.067 28.5277C110.733 28.7888 110.394 29.0555 110.056 29.3166C109.894 29.4555 109.706 29.5666 109.517 29.6722L108.956 29.9999L108.394 30.3277L107.783 30.5777L107.194 30.8166L106.9 30.9333C106.794 30.9666 106.689 30.9888 106.578 31.0222L105.289 31.3555C103.572 31.6555 101.85 31.7166 100.167 31.6999C98.4833 31.6666 96.85 31.5944 95.2722 31.5777C93.6833 31.5777 92.1444 31.5444 90.6889 31.5222C89.9667 31.5111 89.2444 31.4999 88.5667 31.4722C87.8889 31.4444 87.3055 31.5388 86.7166 31.7722C86.1722 31.9722 85.7 32.3499 85.3333 32.7555C84.95 33.1555 84.6778 33.6222 84.4778 34.0833C84.0667 35.0055 83.9 35.8944 83.8055 36.6277C83.7222 37.3611 83.7 37.9444 83.6944 38.3388C83.6944 38.7388 83.6944 38.9499 83.6944 38.9499C83.6944 38.9499 83.6778 38.7388 83.6444 38.3444C83.6278 37.9499 83.5889 37.3611 83.6444 36.6166C83.6944 35.8722 83.8111 34.9611 84.1889 33.9722C84.55 32.9944 85.2778 31.8944 86.5555 31.3444C87.1333 31.0777 87.8778 30.9333 88.5722 30.9444C89.2666 30.9499 89.9611 30.9444 90.6944 30.9222C92.15 30.8999 93.6889 30.8666 95.2778 30.8666C96.8778 30.8666 98.5222 30.9222 100.178 30.9333C101.833 30.9333 103.506 30.8499 105.133 30.5499L106.306 30.2611C106.406 30.2388 106.5 30.2166 106.6 30.1888L106.894 30.0722L107.483 29.8388L108.044 29.6166L108.572 29.3166L109.1 29.0166C109.278 28.9166 109.456 28.8222 109.611 28.6888C109.933 28.4444 110.25 28.1999 110.572 27.9555C110.878 27.6999 111.15 27.3999 111.439 27.1277C111.578 26.9833 111.728 26.8555 111.856 26.7055L112.228 26.2444C112.467 25.9333 112.744 25.6499 112.944 25.3166C113.156 24.9888 113.367 24.6666 113.578 24.3499C113.789 24.0277 113.944 23.6833 114.133 23.3555C114.522 22.7055 114.772 22.0222 115.072 21.3722C115.317 20.6944 115.572 20.0111 115.761 19.3777C115.956 18.7222 116.144 18.0833 116.328 17.4777C116.689 16.2555 117.1 15.1444 117.572 14.2111C118.039 13.2722 118.567 12.5222 119.078 11.9722C119.578 11.4166 120.05 11.0555 120.372 10.8277C120.706 10.6111 120.883 10.4944 120.883 10.4944L120.872 10.4833Z" fill="white"/>
<path d="M129.5 10.4833C129.5 10.4833 129.678 10.5999 130.011 10.8166C130.333 11.0444 130.806 11.4055 131.306 11.9611C131.811 12.5111 132.344 13.2666 132.811 14.1999C133.283 15.1333 133.694 16.2444 134.056 17.4666C134.239 18.0777 134.428 18.7111 134.622 19.3666C134.811 19.9999 135.067 20.6833 135.311 21.3611C135.611 22.0111 135.861 22.6944 136.25 23.3444C136.439 23.6722 136.594 24.0166 136.806 24.3388C137.017 24.6611 137.228 24.9833 137.439 25.3055C137.639 25.6388 137.917 25.9166 138.156 26.2333L138.528 26.6944C138.656 26.8444 138.806 26.9777 138.944 27.1166C139.233 27.3888 139.506 27.6888 139.811 27.9444C140.128 28.1888 140.45 28.4333 140.772 28.6777C140.928 28.8111 141.106 28.9111 141.283 29.0055L141.811 29.3055L142.339 29.6055L142.9 29.8277L143.489 30.0611L143.783 30.1777C143.883 30.2055 143.978 30.2277 144.078 30.2499L145.25 30.5388C146.872 30.8388 148.55 30.9222 150.206 30.9222C151.861 30.9111 153.511 30.8499 155.106 30.8555C156.694 30.8555 158.233 30.8888 159.689 30.9111C160.422 30.9277 161.117 30.9388 161.811 30.9333C162.506 30.9166 163.25 31.0666 163.828 31.3333C165.106 31.8888 165.833 32.9833 166.194 33.9611C166.572 34.9499 166.689 35.8666 166.739 36.6055C166.789 37.3499 166.756 37.9388 166.739 38.3333C166.706 38.7277 166.689 38.9388 166.689 38.9388C166.689 38.9388 166.689 38.7277 166.689 38.3277C166.683 37.9333 166.661 37.3499 166.578 36.6166C166.489 35.8888 166.317 34.9999 165.906 34.0722C165.7 33.6111 165.428 33.1444 165.05 32.7444C164.683 32.3444 164.206 31.9666 163.667 31.7611C163.078 31.5222 162.494 31.4277 161.817 31.4611C161.139 31.4888 160.417 31.5055 159.694 31.5111C158.239 31.5333 156.7 31.5666 155.111 31.5666C153.528 31.5833 151.894 31.6555 150.217 31.6888C148.533 31.7055 146.811 31.6444 145.094 31.3444L143.806 31.0111C143.7 30.9833 143.589 30.9555 143.483 30.9222L143.189 30.8055L142.6 30.5666L141.989 30.3166L141.428 29.9888L140.867 29.6611C140.678 29.5555 140.489 29.4444 140.328 29.3055C139.989 29.0388 139.65 28.7777 139.317 28.5166C138.994 28.2388 138.711 27.9222 138.411 27.6277C138.267 27.4777 138.106 27.3388 137.978 27.1777L137.589 26.6888C137.344 26.3611 137.056 26.0611 136.844 25.7111C135.911 24.3777 135.267 22.9444 134.739 21.5499C134.511 20.8499 134.294 20.1944 134.111 19.5055C133.939 18.8444 133.772 18.1999 133.611 17.5888C133.283 16.3666 132.944 15.2611 132.539 14.3222C132.133 13.3833 131.661 12.6222 131.194 12.0555C130.728 11.4833 130.3 11.0944 129.994 10.8444C129.678 10.5999 129.511 10.4722 129.511 10.4722L129.5 10.4833Z" fill="white"/>
<path opacity="0.3" d="M245.628 194.706L240.094 190.161L226.044 159.522C225.361 158.033 224.094 156.9 222.539 156.378L209.706 152.094L209.822 152.05L200.467 149.011L192.961 146.506V146.567H192.956L191.544 146.106C190.128 145.644 188.578 145.883 187.367 146.75L167.339 161.089L167.317 161.106L165.511 162.394L160.05 166.3L159.511 166.689C159.511 166.689 159.722 166.978 160.167 167.389C160.5 167.706 160.972 168.089 161.583 168.472C161.844 168.639 162.128 168.8 162.444 168.956C163.339 169.406 164.45 169.8 165.789 170.006C166.222 170.106 166.661 170.178 167.1 170.233C163.928 171.494 161.844 173.589 161.844 173.589L162.406 173.989L165.956 176.506L169.256 178.844L169.567 179.067L174 182.211L172.228 188.611L171.944 189.639C171.944 189.639 172.25 189.894 172.8 190.15C172.8 190.15 172.804 190.15 172.811 190.15C173.094 190.283 173.444 190.417 173.856 190.511C174.017 190.55 174.189 190.578 174.372 190.594H174.383C175.989 190.75 178.522 190.067 181.194 187.311L185.167 190.128L185.711 191.878L187.889 198.833L188.117 199.567C188.117 199.567 190.061 198.428 191.289 195.989C191.922 196.894 192.761 197.978 193.811 199.172L194.672 203.989V204.011L194.75 204.439C194.75 204.439 195.978 203.917 197.244 202.639C201.478 206.472 207.717 210.661 216.539 213.5L223.85 219.528L223.911 219.578L227.989 222.939L228.011 222.961C227.633 223.839 227.261 224.728 226.894 225.633L230.9 228.944C230.511 230.128 230.144 231.339 229.8 232.572L248.511 249.983H250.006V193.661L248.139 192.006C248.139 192.006 247.183 192.922 245.633 194.683L245.628 194.706ZM177.144 170.856C176.15 170.322 175.55 169.989 175.494 169.967C175.089 169.822 174.694 169.706 174.3 169.611C175.5 169.283 176.683 168.856 177.833 168.367L177.144 170.85V170.856ZM186.828 163.067C189.911 160.761 191.872 158.8 191.911 158.761V158.817C193.167 159.556 194.306 160.222 195.344 160.839L198.972 163.039L186.828 163.067Z" fill="#333333"/>
<path d="M230.939 173.2L223.072 178.4L218.422 181.483L204.139 180.267L204.678 189.394C205.783 196.95 199.833 199.533 199.833 199.533L199.472 197.611L196.494 181.706C194.061 168.689 196.756 170.567 196.756 170.567L226.472 165L230.939 173.206V173.2Z" fill="#D7F8E5"/>
<path d="M220.867 164.8L215.117 169.75L211.217 173.106L209.489 174.594L195.472 173.183L196.85 184.167C197.289 185.733 197.378 187.111 197.244 188.317C196.778 192.783 193.322 194.833 193.322 194.833L193.094 194.117L187.761 177.567C183.706 164.961 186.617 166.483 186.617 166.483L215.4 157.217L220.861 164.794L220.867 164.8Z" fill="#496F46"/>
<path opacity="0.8" d="M209.494 174.6L195.478 173.189L196.856 184.172C197.294 185.739 197.383 187.117 197.25 188.322C197.628 183.211 192.528 171.922 192.528 171.922C202.917 173.178 212.144 167.822 212.144 167.822L211.222 173.111L209.494 174.6Z" fill="#3D5D3B"/>
<path d="M220.744 160.772L218.017 165.344L217.572 166.089L214.889 170.578L214.4 171.4L202.778 170.183L193.694 168.033C189.594 183.556 182.989 186.494 179.889 186.222C179.889 186.222 179.883 186.222 179.878 186.222C179.7 186.206 179.533 186.183 179.378 186.144C178.978 186.056 178.633 185.928 178.356 185.8C178.356 185.8 178.354 185.8 178.35 185.8C177.817 185.556 177.517 185.311 177.517 185.311L184.45 159.383L209.944 159.106L220.756 160.778L220.744 160.772Z" fill="#61945E"/>
<path d="M214.078 148.383L213.961 148.428L196.706 155.044C196.706 155.044 196.7 155.044 196.689 155.056C196.572 155.144 195.761 155.728 194.289 156.678H194.283C193.55 157.156 192.656 157.711 191.6 158.344C189.694 159.478 187.278 160.844 184.35 162.333C182.367 163.344 180.167 164.411 177.733 165.506H177.728C177.4 165.65 177.078 165.794 176.75 165.939C175.306 166.267 174.006 166.389 172.844 166.361C170.856 166.311 169.272 165.828 168.089 165.239C167.778 165.089 167.5 164.933 167.244 164.772C166.65 164.406 166.183 164.033 165.856 163.733C165.422 163.339 165.211 163.061 165.211 163.061L165.733 162.678L171.017 158.828L172.761 157.556L172.783 157.539L192.161 143.411C193.333 142.556 194.839 142.311 196.228 142.75L197.606 143.183L204.583 145.389L204.744 145.439L214.072 148.383H214.078Z" fill="#79B975"/>
<path opacity="0.8" d="M214.889 170.578L214.4 171.4L202.778 170.183L193.694 168.033C189.594 183.556 182.989 186.494 179.889 186.222C189.139 184.422 192.839 166.594 192.839 166.594C206.2 170.283 211.083 162.217 211.083 162.217L214.894 170.583L214.889 170.578Z" fill="#3D5D3B"/>
<path d="M229.933 155.522C229.256 154.078 228.011 152.983 226.494 152.494L197.611 143.128L196.683 155.117C205.656 160.272 208.672 162.122 209.622 162.722C209.95 162.928 210.033 162.994 210.033 162.994L209.594 169.078C209.522 170.094 209.239 171.028 208.783 171.856C207.272 174.633 203.933 176.15 200.678 175.111C192.039 172.356 181.056 166.2 180.794 166.111C178.211 165.194 175.772 165.406 173.706 166.061C173.567 166.106 173.428 166.144 173.294 166.194C173.278 166.2 173.256 166.206 173.244 166.211C173.233 166.211 173.222 166.222 173.211 166.222C173.028 166.289 172.85 166.356 172.672 166.428C172.667 166.428 172.661 166.428 172.661 166.428C169.561 167.683 167.539 169.756 167.539 169.756L168.089 170.139L171.567 172.561L174.8 174.811L175.106 175.022L194.739 188.711C194.739 188.711 201.311 201.983 221.122 208.167L228.294 213.972L228.4 214.056L250.006 231.556V190.178L243.878 185.233L229.939 155.517L229.933 155.522Z" fill="#79B975"/>
<path d="M209.083 176.178L210.594 162.372L210.55 162.389L210.622 162.306C201.828 158.85 196.911 152.211 196.911 152.211C186.572 164.661 171.322 166.239 171.322 166.239C183.194 168.845 196.694 155.067 196.694 155.067L210.022 162.989L210.039 163L209.089 176.183L209.083 176.178Z" fill="#79B975"/>
<path d="M232.367 217.283L233.533 214.606L223.006 205.789C209.167 203.228 202.95 192.839 201.078 188.967C200.617 188.011 199.833 187.261 198.867 186.822C186.444 181.178 173.261 170.1 173.261 170.1L172.672 170.856L171.567 172.567L174.8 174.817L175.106 175.028L194.739 188.717C194.739 188.717 201.311 201.989 221.122 208.172L232.372 217.278L232.367 217.283Z" fill="#3D5D3B"/>
<path d="M177.328 170.395C177.711 170.717 177.767 171.289 177.444 171.678L175.294 174.256L174.8 174.811L168.089 170.139C168.283 169.995 168.511 169.828 168.75 169.645C168.756 169.645 168.756 169.639 168.756 169.639C168.878 169.55 169 169.456 169.133 169.356C172.439 166.883 175.9 169.195 177.322 170.395H177.328Z" fill="#79B975"/>
<path d="M178.4 184.433C178.206 184.417 177.994 184.372 177.772 184.3L179.444 178.05L180.056 178.472L181.961 179.8C181.961 179.8 181.3 184.711 178.4 184.428V184.433Z" fill="#79B975"/>
<path d="M193.8 193.667C193.417 193.983 193.106 194.122 193.106 194.122L190.928 187.367L191.706 187.067L192.144 186.9L194.872 188.839C195.75 191.5 194.617 192.983 193.8 193.667Z" fill="#79B975"/>
<path d="M201.828 197.383C201.45 197.789 200.806 198.311 200.333 198.672C199.994 198.933 199.75 199.111 199.75 199.111V199.089L198.867 194.406L199.111 194.65L201.822 197.378L201.828 197.383Z" fill="#79B975"/>
<path opacity="0.3" d="M175.294 174.256L174.8 174.811L168.089 170.139C168.283 169.994 168.511 169.828 168.75 169.644C168.756 169.644 168.756 169.639 168.756 169.639L175.289 174.256H175.294Z" fill="white"/>
<path opacity="0.3" d="M178.422 184.445L177.772 184.3L179.444 178.056L180.056 178.478L178.4 184.433L178.422 184.445Z" fill="white"/>
<path opacity="0.3" d="M193.8 193.667C193.417 193.983 193.106 194.122 193.106 194.122L190.928 187.367L191.706 187.067L193.8 193.667Z" fill="white"/>
<path opacity="0.3" d="M200.333 198.678L199.75 199.095L198.872 194.411L199.117 194.656L199.811 195.422L200.333 198.678Z" fill="white"/>
<path d="M174.478 159.367C174.811 159.717 174.817 160.267 174.483 160.617C173.172 162.011 169.794 165.044 166.556 163.239C166.283 163.089 166.011 162.906 165.739 162.683L171.022 158.833L172.767 157.561L173.389 158.217L173.439 158.272L174.478 159.372V159.367Z" fill="#79B975"/>
<path opacity="0.3" d="M173.439 158.267L166.556 163.233C166.283 163.083 166.011 162.9 165.739 162.678L171.022 158.828L172.767 157.556L172.789 157.539L173.389 158.211L173.439 158.267Z" fill="white"/>
<path d="M238.933 226.089C238.933 226.089 241.4 217.178 250 204.028V188.811C246.35 192.894 237.628 203.694 231.311 219.894L238.933 226.089Z" fill="white"/>
<path d="M234.2 226.633L250 241.089V195.872C246.511 200.222 242.278 206.361 238.767 214.017C237 217.856 235.417 222.072 234.2 226.639V226.633Z" fill="#2E2836"/>
<path opacity="0.5" d="M234.2 226.633L250 241.089V223.767L238.767 214.017C237 217.856 235.417 222.072 234.2 226.639V226.633Z" fill="#2E2836"/>
<path d="M239.144 224.333C239.628 223.233 240.911 222.733 242.017 223.217C243.122 223.7 243.617 224.983 243.133 226.089C242.65 227.189 241.367 227.689 240.261 227.206C239.161 226.722 238.661 225.439 239.144 224.333Z" fill="white"/>
<path d="M245.578 229.9C246.061 228.8 247.344 228.3 248.45 228.783C249.55 229.267 250.05 230.55 249.567 231.656C249.083 232.756 247.8 233.256 246.694 232.772C245.594 232.289 245.094 231.006 245.578 229.9Z" fill="white"/>
<path d="M245.544 143.045L242.761 143.95L241.45 139.917L244.233 139.011C245.1 138.728 246.028 139.206 246.306 140.067L246.6 140.972C246.883 141.839 246.406 142.767 245.544 143.045Z" fill="#0C120C"/>
<path d="M243.894 144.528L209.617 156.478L208.583 153.528L208.561 153.467L207.583 150.656L207.689 150.617L241.867 138.711C242.717 138.417 243.65 138.861 243.944 139.717L244.472 141.217L244.9 142.461C245.194 143.311 244.744 144.239 243.894 144.539V144.528Z" fill="#808080"/>
<path d="M158.372 168.517C158.372 168.517 155.972 169.595 153.35 172.745C153.35 172.745 156.256 173.678 159.828 172.767L158.372 168.517Z" fill="#1A1A1A"/>
<path d="M203.056 158.8C205.45 157.95 208.644 156.817 209.617 156.478L207.589 150.656C207.589 150.656 194.133 154.583 192.228 155.45C173.044 161.911 158.378 168.522 158.378 168.522L159.833 172.772C162.022 172.272 165.017 171.433 168.456 170.395L168.1 170.145L167.55 169.761C167.55 169.761 169.572 167.689 172.672 166.433C172.672 166.433 172.678 166.433 172.683 166.433C172.861 166.361 173.033 166.295 173.222 166.228C173.233 166.228 173.244 166.228 173.256 166.217C173.267 166.217 173.283 166.206 173.306 166.2C173.439 166.15 173.578 166.106 173.717 166.067C175.783 165.417 178.217 165.2 180.806 166.117C180.833 166.128 180.972 166.2 181.2 166.317C187.994 164.061 194.917 161.667 200.233 159.806C200.233 159.806 200.244 159.806 200.261 159.795C201.256 159.445 202.206 159.111 203.072 158.806C203.072 158.806 203.067 158.806 203.061 158.8H203.056Z" fill="#0C120C"/>
<path d="M244.472 141.211L208.583 153.528L208.561 153.467L207.689 150.617L241.867 138.711C242.717 138.417 243.65 138.861 243.944 139.717L244.472 141.217V141.211Z" fill="#E5E5E5"/>
<path d="M244.994 142.444L219.228 151.144C218.494 151.394 217.7 151 217.45 150.267L217.439 150.239C217.189 149.506 217.583 148.711 218.317 148.461L244.083 139.761L244.989 142.444H244.994Z" fill="#333333"/>
<path d="M181.228 166.333C181.228 166.333 181.183 166.317 181.1 166.295C180.478 166.117 177.706 165.411 174.25 165.945C173.594 166.078 173.022 166.278 172.617 166.445C172.622 166.445 172.628 166.445 172.633 166.445C169.556 167.7 167.544 169.756 167.544 169.756L168.094 170.139L168.517 170.433C164.65 171.617 161.533 172.478 159.828 172.767L159.128 170.711L171.672 166.289C171.672 166.289 193.4 158.633 193.644 158.545L199.239 156.572L207.55 153.645L208.606 156.839C208.606 156.839 206.456 157.645 203.039 158.85L181.233 166.328L181.228 166.333Z" fill="#0C120C"/>
<path d="M210.583 156.122L208.578 156.867L206.656 150.9L208.667 150.267L210.583 156.122Z" fill="#333333"/>
</g>
<defs>
<clipPath id="clip0_37_1868">
<rect width="250" height="250" fill="white"/>
</clipPath>
</defs>
</svg>
