<svg width="447" height="395" viewBox="0 0 447 395" fill="none" xmlns="http://www.w3.org/2000/svg">
<path d="M226.287 126.389C232.161 111.18 240.182 95.68 238.044 79.5225C235.631 61.3017 219.773 46.6003 201.885 42.3737C183.997 38.1472 164.844 43.1558 149.144 52.7155C133.453 62.2752 120.781 76.0531 109.325 90.4301C85.9872 119.708 66.5683 152.722 57.1251 188.947C47.6736 225.172 48.7968 264.884 64.7795 298.738C79.6141 330.163 107.12 355.389 139.718 367.444C176.376 381.006 220.289 376.946 250.923 352.676C281.557 328.407 295.368 283.146 279.119 247.595C268.769 224.956 248.918 209.007 233.95 189.671C219.49 171.001 217.826 148.304 226.296 126.381L226.287 126.389Z" fill="#BCDCBA"/>
<path d="M227.194 154.735C227.477 161.35 229.549 168.779 235.464 171.741C239.857 173.938 245.357 172.956 249.45 170.244C253.544 167.531 256.431 163.338 258.702 158.979C262.804 151.116 265.242 142.089 263.819 133.336C262.122 122.903 251.389 108.518 239.999 117.121C229.965 124.7 226.687 143.054 227.186 154.727L227.194 154.735Z" fill="#BCDCBA"/>
<path d="M248.169 190.129C248.227 192.558 248.735 195.121 250.374 196.918C252.778 199.547 257.238 199.705 260.108 197.6C262.987 195.495 264.218 191.568 263.561 188.074C262.879 184.454 259.626 179.063 255.374 179.229C250.083 179.437 248.069 185.811 248.169 190.129Z" fill="#BCDCBA"/>
<path d="M108.784 79.223C112.736 75.2294 116.755 71.136 119.217 66.0941C121.688 61.0522 122.379 54.7872 119.592 49.9117C116.438 44.3872 109.441 41.8829 103.118 42.5818C96.7949 43.2806 91.0624 46.6253 86.0039 50.4941C80.1882 54.9453 74.8717 60.345 71.9348 67.0509C68.9978 73.7568 68.7565 81.9437 72.6503 88.1421C76.0448 93.5667 84.5562 97.9347 90.9876 95.7715C97.6852 93.5251 103.967 84.0902 108.776 79.2147L108.784 79.223Z" fill="#BCDCBA"/>
<mask id="mask0_37_2150" style="mask-type:luminance" maskUnits="userSpaceOnUse" x="51" y="40" width="236" height="336">
<path d="M279.119 247.603C268.769 224.964 248.918 209.015 233.95 189.679C219.49 171.009 217.826 148.312 226.296 126.389C232.17 111.18 240.19 95.6799 238.052 79.5225C235.639 61.3017 219.781 46.6002 201.893 42.3737C186.643 38.7711 170.46 41.8828 156.291 48.8134C147.314 48.2726 138.337 48.6137 129.725 51.0514C116.547 54.7788 104.241 64.3385 100.83 77.6089C99.0496 84.5394 99.9398 92.0774 103.076 98.5087C82.5594 125.74 65.7197 156.017 57.1334 188.955C47.6819 225.181 48.8051 264.892 64.7878 298.746C79.6224 330.171 107.128 355.397 139.726 367.453C176.384 381.014 220.297 376.954 250.931 352.685C281.565 328.415 295.377 283.154 279.128 247.603H279.119Z" fill="white"/>
</mask>
<g mask="url(#mask0_37_2150)">
<path d="M147.247 245.731C140.325 250.432 133.245 255.216 125.166 257.387C121.039 258.494 116.339 258.81 112.778 256.456C108.551 253.668 107.228 247.844 108.293 242.894C109.358 237.944 112.337 233.659 115.24 229.515L143.221 216.478L147.247 245.723V245.731Z" fill="#EBA58E"/>
<path d="M138.636 221.27C122.554 267.862 112.287 342.601 112.287 342.601L139.826 343.99L159.586 218.466L138.636 221.27Z" fill="#558252"/>
<path d="M148.312 211.852C136.14 254.833 123.386 318.897 123.386 318.897L124.617 325.279L123.386 332.492H150.284L159.586 218.475L148.312 211.86V211.852Z" fill="white"/>
<path d="M148.312 211.852C143.57 228.584 138.744 248.51 134.618 266.606C139.293 264.9 143.803 262.737 148.038 260.125L141.848 312.99C141.64 314.77 140.125 316.118 138.328 316.118C137.13 316.118 136.015 316.726 135.366 317.724L133.919 319.945C133.511 320.569 132.92 321.044 132.23 321.31L126.847 323.39H135.741C138.104 323.39 140.134 325.079 140.558 327.409L141.482 332.475H150.276L159.578 218.458L148.304 211.844L148.312 211.852Z" fill="#E4E4E0"/>
<path d="M125.599 332.484L119.775 381.297H218.225L217.518 366.621C217.252 361.063 216.761 355.513 216.045 349.997L213.782 332.492H125.59L125.599 332.484Z" fill="#2E2836"/>
<path d="M215.837 348.317L213.791 332.484H141.482L135.167 352.726L215.837 348.317Z" fill="#2E2836"/>
<path d="M159.711 142.097L163.421 152.514L188.714 144.943L178.988 116.721L159.711 142.097Z" fill="#F2C9AD"/>
<path d="M178.988 116.721L159.711 142.097L162.29 149.327C176.218 145.425 179.263 121.43 178.988 116.721Z" fill="#472948"/>
<path d="M115.74 82.0767C115.282 86.5944 115.332 91.2203 116.555 95.5883C117.778 99.9563 120.274 104.075 123.993 106.671C123.519 98.5419 123.951 90.1554 125.183 82.1016C122.47 83.0584 118.543 82.7256 115.74 82.0767Z" fill="#6A3649"/>
<path d="M180.952 89.8891C178.722 81.2197 173.455 73.2159 165.884 68.4402C158.313 63.6645 148.429 62.3999 140.192 65.8943C131.423 69.605 125.341 78.2411 123.119 87.5013C120.906 96.7615 122.171 106.571 124.975 115.665C127.679 124.409 132.005 132.995 139.194 138.669C146.382 144.344 156.857 146.473 164.886 142.081C169.304 139.668 172.598 135.566 174.895 131.081C181.018 119.109 184.321 103.035 180.935 89.8808L180.952 89.8891Z" fill="#F2C9AD"/>
<path d="M168.979 59.8706C168.829 60.1285 168.696 60.3864 168.588 60.661C168.738 60.4114 168.863 60.1452 168.979 59.8706Z" fill="white"/>
<path d="M163.887 99.8565C162.332 97.1192 159.336 95.2473 156.191 95.0559C153.046 94.8645 149.852 96.3538 147.971 98.8748C152.922 98.3007 158.979 98.9497 163.887 99.8482V99.8565Z" fill="#6A3649"/>
<path d="M133.02 100.322C132.488 99.6152 131.955 98.908 131.281 98.3423C130.607 97.7765 129.767 97.3605 128.885 97.3605C127.388 97.3522 126.09 98.5336 125.499 99.9064C124.908 101.279 124.867 102.818 124.842 104.316C127.088 102.644 130.283 100.921 133.02 100.322Z" fill="#6A3649"/>
<path d="M160.376 108.335C160.518 107.469 160.227 106.346 159.469 105.448C158.729 104.541 157.523 103.85 156.191 103.784C154.852 103.717 153.587 104.291 152.764 105.115C151.923 105.938 151.532 107.028 151.582 107.902C152.639 106.521 154.411 105.556 156.1 105.631C157.789 105.722 159.453 106.854 160.376 108.335Z" fill="#472948"/>
<path d="M134.035 110.631C133.761 109.799 133.145 108.85 132.355 108.21C131.573 107.569 130.616 107.236 129.842 107.503C129.06 107.777 128.586 108.618 128.453 109.574C128.311 110.539 128.527 111.629 128.918 112.42C128.952 110.889 129.559 109.566 130.541 109.217C131.523 108.875 132.92 109.499 134.035 110.623V110.631Z" fill="#472948"/>
<path d="M148.62 118.676C145.966 118.934 143.312 119.184 140.65 119.442C141.515 120.931 142.854 122.063 144.577 121.93C146.291 121.788 148.004 120.29 148.62 118.685V118.676Z" fill="#EBA58E"/>
<path d="M164.428 121.788C157.523 125.457 150.068 128.103 142.388 129.609C145.45 132.196 149.144 134.617 153.155 134.8C156.383 134.95 159.644 133.586 161.799 131.181C163.954 128.777 164.919 124.966 164.428 121.78V121.788Z" fill="white"/>
<path d="M164.062 134.617C161.766 136.223 159.203 137.455 156.508 138.245C157.539 138.603 158.687 139.177 159.777 139.135C160.867 139.094 161.965 138.752 162.789 138.045C163.621 137.338 164.17 135.707 164.062 134.617Z" fill="#EBA58E"/>
<path d="M165.485 118.676C169.763 118.676 173.231 117.127 173.231 115.215C173.231 113.304 169.763 111.754 165.485 111.754C161.207 111.754 157.739 113.304 157.739 115.215C157.739 117.127 161.207 118.676 165.485 118.676Z" fill="#EBA58E"/>
<path d="M135.624 116.463C136.165 117.686 135.067 119.35 133.178 120.191C131.29 121.031 129.318 120.715 128.777 119.492C128.236 118.269 129.334 116.605 131.223 115.764C133.112 114.924 135.084 115.24 135.624 116.463Z" fill="#EBA58E"/>
<path d="M158.413 86.9022C161.167 95.9544 169.578 99.4904 174.52 99.3905L181.925 95.0558C181.701 93.292 181.384 91.5614 180.952 89.8808C179.945 85.9621 178.306 82.1765 176.118 78.7653C158.463 80.4625 140.883 82.9669 123.452 86.2616C123.336 86.6693 123.219 87.0853 123.119 87.5013C122.595 89.7061 122.271 91.9358 122.113 94.1905C134.551 94.4734 147.048 91.9857 158.413 86.9105V86.9022Z" fill="#EBA58E"/>
<path d="M181.126 112.253C176.958 109.441 174.379 104.416 174.52 99.3906C167.789 97.4687 161.716 91.8859 160.168 85.0635C148.687 89.1653 136.456 90.6296 124.259 90.796C120.365 90.8459 116.372 90.6795 112.753 89.2319C109.133 87.7842 105.914 84.8472 105.057 81.045C103.75 75.2043 108.21 69.6549 112.969 66.0274C128.078 54.5125 149.727 52.291 166.858 60.4862C166.142 57.5077 166.026 54.9368 165.31 51.9583C167.007 52.5157 168.438 53.8219 169.062 55.4942C169.686 57.1666 169.495 59.1218 168.572 60.6527C169.212 58.9887 170.668 57.6658 172.341 57.0418C174.013 56.4178 175.951 56.5426 177.524 57.3829C175.677 58.8639 173.763 60.4031 171.925 61.8923C175.436 60.6693 179.737 62.1003 182.674 64.3717C185.619 66.6431 187.524 70.0543 188.548 73.6319C189.571 77.2095 189.754 80.9618 189.754 84.6808C189.754 88.924 189.513 93.1672 189.039 97.3771C188.731 100.123 188.307 102.885 187.267 105.448C186.227 108.01 184.513 110.373 182.108 111.737L181.11 112.245L181.126 112.253Z" fill="#6A3649"/>
<path d="M108.06 80.5125C108.909 76.1694 111.654 72.3589 115.074 69.5634C118.493 66.7595 122.579 64.8792 126.714 63.3234C133.353 60.8357 140.358 59.0968 147.447 59.1883C154.536 59.2799 161.732 61.3016 167.299 65.6946C173.006 63.4398 180.053 65.6946 184.404 70.021C186.476 72.0843 188.074 74.5304 189.313 77.1762C189.139 75.9781 188.897 74.7966 188.564 73.6318C187.549 70.0543 185.636 66.6431 182.691 64.3717C179.745 62.1003 175.452 60.6693 171.941 61.8923C173.788 60.4114 175.702 58.8722 177.54 57.3829C175.968 56.5426 174.029 56.4178 172.357 57.0418C170.959 57.5659 169.72 58.5726 168.971 59.8622C168.863 60.1368 168.738 60.4031 168.58 60.6527C168.688 60.3781 168.821 60.1202 168.971 59.8622C169.537 58.4811 169.587 56.892 169.071 55.4942C168.447 53.8219 167.016 52.5157 165.318 51.9583C166.034 54.9368 166.15 57.5077 166.866 60.4862C149.727 52.291 128.086 54.5125 112.977 66.0274C108.218 69.6549 103.759 75.2043 105.065 81.045C105.523 83.0751 106.654 84.8555 108.16 86.2949C107.719 84.4062 107.686 82.4094 108.052 80.5125H108.06Z" fill="#8E5A61"/>
<path d="M185.494 97.4936C187.649 96.4536 190.461 96.6117 192.192 98.259C194.297 100.272 194.214 103.625 193.715 106.488C193.357 108.551 192.849 110.623 191.859 112.47C190.869 114.317 189.347 115.939 187.4 116.721C176.334 121.156 178.339 100.971 185.503 97.4936H185.494Z" fill="#F2C9AD"/>
<path d="M189.388 100.555C187.05 100.555 184.987 102.327 184.022 104.457C183.057 106.587 182.998 109.008 183.156 111.338C183.19 111.837 183.24 112.345 183.448 112.802C183.656 113.26 184.063 113.651 184.563 113.709C185.486 113.817 186.127 112.827 186.468 111.962C186.884 110.93 187.225 109.799 186.992 108.709C186.759 107.619 185.769 106.621 184.671 106.745C184.671 105.506 185.336 104.1 186.068 103.093C186.801 102.086 188.19 100.913 189.38 100.547L189.388 100.555Z" fill="#EBA58E"/>
<path d="M158.796 164.711L159.153 153.787L190.703 144.427L194.297 151.382L158.796 164.711Z" fill="#2E2836"/>
<path d="M168.638 158.005L175.802 154.303C185.22 149.435 196.344 149.111 206.036 153.412C216.387 158.013 223.858 167.34 226.096 178.431L227.777 186.742C232.012 207.742 232.777 229.299 230.031 250.54L217.951 343.982H139.826L157.739 230.83L168.638 157.988V158.005Z" fill="#79B975"/>
<path d="M194.297 193.881L163.089 247.195H158.879L152.156 266.098L163.272 193.881H194.297Z" fill="#304A2F"/>
<path d="M212.127 221.27C200.063 245.398 163.089 288.038 163.089 288.038L166.042 286.599C178.514 280.525 188.781 270.716 195.412 258.536C204.938 241.047 211.494 230.314 212.127 221.27Z" fill="#558252"/>
<path d="M206.428 275.741C194.58 283.978 181.875 290.984 168.58 296.608C183.506 296.433 198.041 288.097 206.428 275.741Z" fill="#558252"/>
<path d="M105.248 160.143C98.8582 179.038 100.123 200.404 108.701 218.417C111.463 224.216 115.373 230.023 121.397 232.244C122.662 237.028 123.635 242.054 124.184 247.054C124.542 250.307 127.953 252.329 130.915 250.931C131.606 250.607 132.28 250.257 132.945 249.874C134.401 249.034 135.292 247.453 135.275 245.773C135.233 240.082 134.36 233.867 133.603 228.417L141.49 224.865C142.638 228.808 143.287 232.619 143.653 235.597C144.052 238.884 147.722 240.656 150.559 238.959C150.592 238.942 150.617 238.925 150.65 238.909C152.04 238.068 152.913 236.571 152.897 234.94C152.788 227.211 150.451 220.829 150.451 220.829C164.095 190.478 135.292 155.251 135.292 155.251L105.256 160.135L105.248 160.143Z" fill="#797C99"/>
<path d="M122.079 171.517C128.735 170.294 135.283 164.711 137.421 158.105C136.115 156.274 135.283 155.259 135.283 155.259L105.248 160.143C104.641 161.94 104.125 163.762 103.659 165.601C108.526 170.294 115.432 172.74 122.088 171.525L122.079 171.517Z" fill="#495375"/>
<path d="M135.433 155.451C135.533 155.576 135.674 155.75 135.849 155.983C135.666 155.75 135.525 155.567 135.433 155.451Z" fill="#797C99"/>
<path d="M135.866 156.008C136.14 156.358 136.498 156.832 136.922 157.423C136.498 156.84 136.14 156.366 135.866 156.008Z" fill="#797C99"/>
<path d="M150.434 220.838C152.397 216.461 153.479 211.993 153.895 207.534C140.408 214.148 126.481 219.856 112.228 224.59C114.6 227.968 117.57 230.83 121.389 232.236C121.979 234.482 122.504 236.779 122.953 239.1C126.739 237.303 130.524 235.506 134.301 233.709C134.068 231.895 133.827 230.114 133.594 228.409L141.482 224.856C141.964 226.529 142.355 228.168 142.68 229.732C145.692 228.301 148.703 226.87 151.715 225.439C151.083 222.618 150.434 220.821 150.434 220.821V220.838Z" fill="#495375"/>
<path d="M104.358 163.005C104.641 162.048 104.924 161.092 105.248 160.143C104.932 161.092 104.632 162.048 104.358 163.005Z" fill="#495375"/>
<path d="M135.849 155.983C135.849 155.983 135.857 156 135.866 156.008C135.866 156.008 135.857 155.992 135.849 155.983Z" fill="#495375"/>
<path d="M136.922 157.423C136.922 157.423 136.956 157.473 136.972 157.489C136.956 157.464 136.939 157.439 136.922 157.423Z" fill="#495375"/>
<path d="M122.079 171.517C128.735 170.294 135.283 164.711 137.421 158.105C137.263 157.889 137.122 157.689 136.98 157.497C136.964 157.473 136.947 157.448 136.931 157.431C136.506 156.849 136.148 156.374 135.874 156.017C135.874 156.017 135.866 156 135.857 155.992C135.674 155.759 135.533 155.576 135.441 155.459C135.441 155.459 135.441 155.459 135.441 155.451C135.35 155.334 135.3 155.268 135.3 155.268L105.265 160.152C104.948 161.1 104.657 162.057 104.374 163.014C104.125 163.871 103.892 164.736 103.667 165.601C108.534 170.294 115.44 172.74 122.096 171.525L122.079 171.517Z" fill="#495375"/>
<path d="M114.009 231.92C115.54 234.507 115.74 237.827 114.533 240.581C113.327 243.327 110.739 245.432 107.802 246.056C104.707 246.705 101.521 245.789 98.359 245.723C90.0889 245.548 82.1849 252.004 80.704 260.141C79.2313 268.278 84.3648 277.106 92.1689 279.843C95.2473 280.925 98.8749 281.058 101.571 279.219C104.266 277.38 105.364 273.17 103.21 270.733C101.146 268.395 97.4771 268.644 94.5984 267.43C91.4451 266.098 89.2736 262.737 89.3485 259.326C89.4233 255.906 91.7446 252.645 94.9561 251.455C98.2342 250.241 101.87 251.114 105.356 250.931C110.373 250.665 115.215 248.061 118.202 244.017C121.181 239.974 122.246 234.582 121.023 229.707C119.076 230.164 115.972 231.462 114.026 231.92H114.009Z" fill="#797C99"/>
<path d="M121.006 229.715C119.059 230.173 115.956 231.471 114.009 231.928C115.531 234.491 115.731 237.794 114.55 240.531C116.555 240.664 118.593 240.381 120.482 239.691C121.613 236.513 121.83 232.993 121.006 229.723V229.715Z" fill="#495375"/>
<path d="M130.383 185.286L157.739 230.838L194.297 193.881C200.986 187.117 202.667 176.858 198.49 168.313C192.383 155.842 176.509 151.881 165.268 160.027L130.391 185.295L130.383 185.286Z" fill="#79B975"/>
<path d="M163.089 218.466C158.263 207.492 147.846 191.368 139.826 182.458C144.651 193.432 155.068 209.556 163.089 218.466Z" fill="#558252"/>
<path d="M143.661 207.409L153.188 216.52C156.482 219.673 161.599 219.914 165.177 217.094L193.124 195.062L157.731 230.838L143.661 207.401V207.409Z" fill="#558252"/>
<path d="M131.489 187.125L103.027 210.779C97.6518 215.247 96.2041 222.893 99.5654 229.016C103.226 235.689 111.396 238.418 118.335 235.298L151.457 220.388L131.489 187.133V187.125Z" fill="#F2C9AD"/>
<path d="M131.489 187.125L151.457 220.38L138.553 226.187L141.798 222.502C143.953 220.056 144.419 216.553 142.979 213.633L130.383 188.04L131.481 187.125H131.489Z" fill="#EBA58E"/>
<path d="M130.083 182.557C128.893 180.852 127.487 178.996 125.424 178.664C123.943 178.422 122.47 179.055 121.139 179.737C120.124 180.261 119.084 180.86 118.485 181.834C117.487 183.464 118.618 184.621 119.392 185.985C120.365 187.691 120.865 189.663 121.464 191.518C121.946 193.024 122.495 194.546 123.294 195.903C126.431 193.107 130.116 190.919 134.068 189.496C133.145 186.992 131.606 184.762 130.075 182.566L130.083 182.557Z" fill="#797C99"/>
<path d="M134.077 189.496C130.117 190.919 126.439 193.107 123.302 195.903C123.652 196.502 124.043 197.067 124.509 197.583C126.031 199.281 128.403 200.387 130.607 199.821C132.563 199.314 134.035 197.567 134.576 195.62C135.117 193.673 134.826 191.576 134.143 189.679C134.118 189.621 134.093 189.563 134.077 189.505V189.496Z" fill="#99A3B0"/>
<path d="M121.93 195.062C119.6 197.026 115.515 196.943 113.177 194.996C111.596 193.681 110.714 191.668 110.365 189.638C110.015 187.608 110.157 185.528 110.29 183.481C107.286 195.894 112.278 203.074 112.278 203.074L121.921 195.054L121.93 195.062Z" fill="#495375"/>
<path d="M122.995 190.27C122.396 188.415 121.896 186.443 120.923 184.737C120.149 183.381 119.018 182.216 120.016 180.586C120.108 180.436 120.232 180.303 120.341 180.17C119.608 180.602 118.926 181.118 118.485 181.834C117.487 183.464 118.618 184.621 119.392 185.985C120.365 187.691 120.865 189.663 121.464 191.518C121.946 193.024 122.495 194.547 123.294 195.903C123.785 195.462 124.292 195.046 124.808 194.638C124.018 193.282 123.469 191.776 122.986 190.27H122.995Z" fill="#495375"/>
<path d="M126.023 196.335C125.557 195.811 125.158 195.237 124.808 194.638C124.293 195.046 123.785 195.462 123.294 195.903C123.644 196.502 124.035 197.067 124.501 197.583C126.023 199.281 128.394 200.387 130.599 199.821C131.639 199.555 132.529 198.931 133.228 198.116C132.879 198.307 132.513 198.474 132.122 198.573C129.917 199.139 127.537 198.033 126.023 196.335Z" fill="#797C99"/>
<path d="M152.481 168.655C151.291 166.949 149.885 165.094 147.821 164.761C146.341 164.52 144.868 165.152 143.537 165.834C142.522 166.358 141.482 166.957 140.883 167.931C139.884 169.562 141.016 170.718 141.789 172.082C142.763 173.788 143.262 175.76 143.861 177.615C144.344 179.121 144.893 180.644 145.692 182C148.828 179.204 152.514 177.016 156.466 175.594C155.542 173.089 154.003 170.859 152.472 168.663L152.481 168.655Z" fill="#797C99"/>
<path d="M156.474 175.585C152.514 177.008 148.837 179.196 145.7 181.992C146.049 182.591 146.44 183.156 146.906 183.672C148.429 185.37 150.8 186.476 153.005 185.91C154.96 185.403 156.433 183.656 156.973 181.709C157.514 179.762 157.223 177.665 156.541 175.768C156.516 175.71 156.491 175.652 156.474 175.594V175.585Z" fill="#99A3B0"/>
<path d="M145.392 176.367C144.793 174.512 144.294 172.54 143.32 170.835C142.547 169.478 141.415 168.314 142.413 166.683C142.505 166.533 142.63 166.4 142.738 166.267C142.006 166.699 141.324 167.215 140.883 167.931C139.884 169.562 141.016 170.718 141.789 172.083C142.763 173.788 143.262 175.76 143.861 177.615C144.344 179.121 144.893 180.644 145.692 182C146.182 181.559 146.69 181.143 147.206 180.735C146.415 179.379 145.866 177.873 145.384 176.367H145.392Z" fill="#495375"/>
<path d="M148.429 182.433C147.963 181.908 147.564 181.334 147.214 180.735C146.698 181.143 146.191 181.559 145.7 182C146.049 182.599 146.44 183.165 146.906 183.681C148.429 185.378 150.8 186.484 153.005 185.919C154.045 185.652 154.935 185.028 155.634 184.213C155.285 184.404 154.918 184.571 154.527 184.671C152.323 185.236 149.943 184.13 148.429 182.433Z" fill="#797C99"/>
<path d="M123.519 126.322C116.738 126.381 107.802 128.527 102.178 132.321L96.1709 118.676C91.7696 154.993 97.1776 165.668 108.751 167.057C120.332 168.447 135.882 160.842 139.826 155.767C143.77 150.692 139.194 137.521 123.103 116.721L123.519 126.322Z" fill="#797C99"/>
<path d="M117.587 143.154C115.939 141.082 113.56 139.526 110.931 139.185C108.31 138.844 105.473 139.826 103.85 141.922C102.378 143.828 102.028 146.349 101.729 148.745C104.624 149.103 107.744 149.302 110.556 148.545C113.377 147.788 116.189 145.716 117.57 143.154H117.587Z" fill="white"/>
<path d="M109.15 148.021C111.771 148.021 113.901 145.891 113.901 143.27C113.901 141.648 113.085 140.225 111.854 139.368C111.555 139.293 111.247 139.235 110.931 139.194C108.934 138.936 106.82 139.443 105.206 140.625C104.699 141.382 104.399 142.289 104.399 143.27C104.399 145.891 106.529 148.021 109.15 148.021Z" fill="#21255C"/>
<path d="M123.086 141.49C123.061 138.919 123.827 136.523 125.357 135.075C126.788 133.719 128.927 133.295 130.849 134.11C132.546 134.834 133.96 136.406 135.275 137.904C134.068 139.426 132.588 141.057 130.641 141.931C128.552 142.863 125.549 142.796 123.086 141.49Z" fill="white"/>
<path d="M131.157 140.808C129.659 142.155 127.171 141.648 125.69 139.593C124.783 138.328 124.525 136.831 124.867 135.608C125.025 135.416 125.183 135.233 125.366 135.067C126.464 134.027 127.978 133.536 129.476 133.727C130.133 134.052 130.749 134.568 131.24 135.25C132.563 137.072 132.563 139.535 131.157 140.799V140.808Z" fill="#21255C"/>
<path d="M133.078 148.612C132.995 149.735 132.446 150.916 131.498 151.757C130.566 152.614 129.235 152.996 127.92 152.855C126.605 152.722 125.374 152.073 124.509 151.124C123.627 150.184 123.078 149.019 122.795 147.93C122.778 148.146 122.495 148.196 122.321 148.029C122.853 149.078 123.136 150.409 122.936 151.732C122.753 153.063 122.029 154.319 120.94 155.176C119.85 156.042 118.469 156.466 117.129 156.341C115.789 156.233 114.566 155.659 113.66 154.902C114.275 155.908 115.473 156.849 116.996 157.173C118.51 157.531 120.324 157.115 121.63 156.058C122.961 155.027 123.777 153.354 123.768 151.798C123.768 151.674 123.768 151.557 123.76 151.441C123.802 151.499 123.835 151.565 123.885 151.632C124.717 152.838 126.206 153.762 127.812 153.92C129.401 154.111 131.115 153.479 132.072 152.314C133.062 151.183 133.361 149.702 133.078 148.612Z" fill="#21255C"/>
<path d="M102.178 132.321C100.364 133.494 98.7002 135.025 97.5936 136.964C96.8282 130.166 97.2358 121.089 97.2358 121.089L102.178 132.321Z" fill="#E47790"/>
<path d="M123.519 126.322C126.015 126.422 128.411 126.98 128.411 126.98C126.223 122.612 123.186 118.676 123.186 118.676L123.519 126.322Z" fill="#E47790"/>
<path d="M93.0842 159.569C95.447 158.296 98.5254 156.632 101.654 155.076C104.782 153.512 107.969 152.073 110.406 150.95C107.819 151.674 104.524 152.938 101.371 154.511C98.2176 156.075 95.2224 157.947 93.0842 159.569Z" fill="#21255C"/>
<path d="M93.9994 164.02C96.2541 162.265 99.1911 159.969 102.236 157.822C105.273 155.667 108.401 153.645 110.806 152.098C108.185 153.254 104.907 155.093 101.845 157.273C98.7834 159.444 95.9546 161.932 93.9994 164.02Z" fill="#21255C"/>
<path d="M99.6985 164.378C101.238 162.856 103.226 160.859 105.298 158.945C107.361 157.032 109.5 155.193 111.139 153.779C109.3 154.918 107.028 156.641 104.948 158.571C102.86 160.493 100.98 162.631 99.6985 164.378Z" fill="#21255C"/>
<path d="M146.607 141.448C144.402 141.373 141.498 141.64 138.678 142.33C135.857 143.004 133.153 144.102 131.231 145.176C133.303 144.419 136.015 143.503 138.803 142.838C141.581 142.155 144.419 141.731 146.607 141.457V141.448Z" fill="#21255C"/>
<path d="M150.043 144.493C147.505 144.136 144.119 144.036 140.766 144.385C137.413 144.718 134.118 145.5 131.706 146.365C134.227 145.891 137.513 145.317 140.833 144.984C144.152 144.635 147.48 144.535 150.051 144.493H150.043Z" fill="#21255C"/>
<path d="M149.627 147.397C147.331 146.931 144.269 146.615 141.199 146.623C138.129 146.623 135.067 146.948 132.771 147.405C135.108 147.306 138.154 147.164 141.199 147.172C144.244 147.172 147.289 147.297 149.627 147.397Z" fill="#21255C"/>
<path d="M125 144.393C122.321 144.26 119.592 145.167 117.52 146.881C117.046 147.272 117.154 148.038 117.72 148.287C118.993 148.845 120.357 149.211 121.73 149.327C122.562 149.402 123.361 149.019 123.877 148.362C124.534 147.53 125.174 146.565 125.682 145.641C125.973 145.101 125.615 144.427 125 144.402V144.393Z" fill="#495375"/>
</g>
</svg>
