<svg width="504" height="378" viewBox="0 0 504 378" fill="none" xmlns="http://www.w3.org/2000/svg">
<path d="M393.1 302.53C395.5 301.23 154.7 298.93 140.7 302.53C130.6 305.13 167.2 307.73 210.3 307.63C256.1 307.63 309.3 304.83 324.2 306.33C353.3 309.13 385 306.93 393.1 302.53Z" fill="#1B1C1E"/>
<path d="M228.4 207C228.4 207 226.4 280.3 226.4 282.8C226.4 285.3 221.7 300.3 221.7 300.3H210.6C210.6 300.3 217.4 250.1 214.5 240.2C211.6 230.2 210 204.4 214.3 203.8C218.6 203.3 225.5 197.6 228.4 207Z" fill="#79B975"/>
<mask id="mask0_37_207" style="mask-type:luminance" maskUnits="userSpaceOnUse" x="210" y="201" width="19" height="100">
<path d="M228.4 207C228.4 207 226.4 280.3 226.4 282.8C226.4 285.3 221.7 300.3 221.7 300.3H210.6C210.6 300.3 217.4 250.1 214.5 240.2C211.6 230.2 210 204.4 214.3 203.8C218.6 203.3 225.5 197.6 228.4 207Z" fill="white"/>
</mask>
<g mask="url(#mask0_37_207)">
<g opacity="0.88">
<path d="M218.4 219C218.5 219.1 218.6 219.2 218.7 219.3C218.7 219.3 218.7 219.2 218.4 219Z" fill="#322015"/>
<path d="M220.9 221.4C221 221.5 221.1 221.7 221.3 221.9L220.9 221.4Z" fill="#322015"/>
<path d="M223.2 221.5C223.3 221.5 223.4 221.6 223.4 221.6C223.3 221.5 223.2 221.5 223.2 221.5Z" fill="#322015"/>
<path d="M214.5 229.3C214.4 229.3 214.4 229.3 214.3 229.2C214.3 229.2 214.4 229.3 214.5 229.3Z" fill="#322015"/>
<path d="M215.2 230.1C215.2 230.2 215.2 230.2 215.2 230.3H215.3C215.5 230.3 215.3 230.2 215.2 230.1Z" fill="#322015"/>
<path d="M215.9 229.8V230C216 229.9 215.9 229.9 215.9 229.8Z" fill="#322015"/>
<path d="M213.9 229C214 229.1 214.2 229.1 214.3 229.2C214.2 229.1 214.1 229 213.9 229Z" fill="#322015"/>
<path d="M218.3 218.9C218.4 219 218.4 219 218.5 219C218.4 218.9 218.3 218.9 218.3 218.9Z" fill="#322015"/>
<path d="M220.6 222C220.5 221.9 220.6 221.9 220.6 222V222Z" fill="#322015"/>
<path d="M215.9 226.4C217.4 226.5 215.9 226.8 217.3 227C217 226.8 216.8 226.6 217.6 226.6C218.4 226.9 217.5 227 218.7 227.3L218.3 226.9C218.9 226.8 219.9 227.2 219.8 227C218.2 226.5 220.5 226.3 220.4 226L220.5 226.1L221.4 225.9H221.5C221.4 225.9 221.3 225.9 221.2 225.8C222.1 225.8 222.7 225.7 222.6 225.3C222.1 225.1 222.1 224.9 222.1 224.6C222.1 224.4 222.2 224.1 221.8 223.9C222 224.1 222 224.2 221.7 224.3L220.6 224C220.7 223.7 221.6 224.3 221.1 223.8C219.6 223.4 220.9 224.2 220.7 224.4C220.4 224.2 220.1 224 220 223.9C219.8 224.3 219.2 224.7 220.7 225.3C220.3 225.3 219.7 225.1 219.6 225C220.4 225.5 218.7 225 219.4 225.5C218 225.1 218.8 224.6 218.1 224.1C219.3 223.9 218.4 223.1 218.4 222.5C219.4 222.8 220.2 223.4 220.8 223.4C221.6 223.2 220.4 222.8 219.9 222.3C220.4 222.1 221.6 222.9 221.8 222.5L222.3 223C223.8 223.3 221.8 222.5 222.2 222.5C221.8 222.4 221.4 222.3 221.4 222.5C220.9 222.3 220.7 222.1 220.7 221.9H220.6C220 221.5 219.2 221.2 219.7 221C220.4 221.6 220.4 221 220.8 221.1L220.9 221.3C220.7 221 221 220.8 220.9 220.6L221.1 220.7C220.9 220.4 219.9 219.8 220.3 219.6C220.7 219.9 221.6 220.7 221.6 220.4C222.2 220.8 222 221 221.7 221.2C222 221.1 223 221.5 223 221.8C223.8 222.1 222.8 221.4 223.2 221.5C223 221.4 222.7 221.2 222.5 221.1C223.5 221.7 222.9 220.7 222.2 220.2L222.6 220.8C221.8 220.4 221.5 219.7 221 219.5C222.3 220.2 220.9 218.3 222 218.9L221.3 218.6C222.1 218.3 221.1 216.8 221.5 215.9C221.6 216.4 222.8 217.5 222.1 217.5C222.8 217.2 223.4 218.4 224.1 218.8C224.8 218.9 223.2 217.6 222.9 217.1V217.6C222.4 216.8 222.7 216.6 223.1 216.5C223.5 216.4 224 216.4 223.9 215.7C224.2 216.1 224 216 224 216.2C224.8 216.8 224.1 215.9 224.1 215.4C224.5 215.3 225 215.5 225.5 216.5C225.9 216.6 225.1 215.9 225 215.5L225.2 215.7C225.1 215.3 224.9 214.8 224.8 214.4C225.3 214.6 225.9 214.9 226.6 215.8C227.1 215.3 225.6 213.3 226 212.7C226.5 213.1 226.3 213.5 226.5 214L226.9 213.7C227.3 215 226.7 214.5 227.3 215.9C227 214.3 227.6 215.3 227.7 214.2L227.6 214.1C227.5 213.1 228.2 213.5 228.5 213.2C228.6 213.8 228.3 214 228.1 214.3C228.6 214.6 229.2 214 229.2 212.6C229.5 212.7 230 213.2 229.9 213.8C230.6 213.9 229.8 211.9 230.5 212.1L230.7 213.1C231.6 214.4 231.8 211.6 232.6 212.8L232.5 211.6C232.7 212.1 233 212.3 233.1 212.8L232.8 213.3C233.2 214.3 233 212.3 233.4 213C233.4 212.6 233 211.8 233 211.4C232.4 211.8 231.6 211.7 230.9 211.6C230.2 211.5 229.4 211.6 228.9 212.4C229 212.5 229.1 212.7 229.1 212.9C228.9 212.7 228.7 213 228.5 212.4V212.3C228.2 212.7 227.4 211.3 227.2 211.4C227.3 212.3 226.3 211.4 227 212.7L226.4 211.9C226.5 212.4 226.8 213.1 226.8 213.4C226.5 213.4 226.3 212.9 226.3 212.4C225.1 212.3 223.9 213.1 223.3 214.2L223.1 213.5C222.7 213.4 223 215.1 222.1 213.6C222.1 214.1 221.7 214.2 221.4 214.4C221.2 214.6 221.1 214.9 221.7 215.6C221 215.1 220.6 215.2 220.3 215.5C220 215.8 220 216.4 219.9 216.8C221.2 217.7 219.9 217.6 220.3 218.1C219.2 217.5 219.7 216.9 219.1 216.4C219.6 217.3 219 217.5 218.6 217.9C218.2 218.2 217.9 218.6 219.2 219.5C219 219.5 218.9 219.5 218.8 219.4C218.7 219.5 218.2 219.5 218 219.5C218.4 219.8 218.8 219.6 218.8 220C218.6 220.2 217.9 219.7 217.5 219.6C217.9 220.4 217.8 221.3 219 221.8C218.6 221.8 217.9 221.7 217.8 221.5C218.5 222.6 217.4 222.2 217.7 223.2C217.7 222.9 216.5 222.7 217.1 222.4C216.2 222.3 216.2 222.6 216.2 223C216.3 223.4 216.5 223.9 216 224.1L217 224.6C217.1 225 216 224.8 215.7 224.5C214.9 225 215.5 225.6 215.4 226.1C215.3 226.1 215 226.1 215.1 226L215 226.7C215.3 226.8 215.8 227.2 216.5 227.2C215.7 227 215.4 226.8 215.9 226.4Z" fill="#322015"/>
<path d="M222.5 222.6C222.2 222.5 222.1 222.5 222 222.5C222.2 222.6 222.4 222.6 222.5 222.6Z" fill="#322015"/>
<path d="M218.1 233.7C219.8 233.6 217.8 233.3 218.3 233C218.6 233.3 219.6 233.2 220.1 233.1C217.9 232.8 220.5 232.7 220.1 232.1C220.8 232.1 220.9 232.4 221.7 232.4C221.1 232.1 220.8 231.6 219.6 231.5C219.6 230.9 220 230.5 219.9 230.2C220.4 230.6 221.1 230.3 222.2 230.7C220.8 230.3 219.1 229.3 217.4 228.4C218.8 228.4 218.9 228.4 220.1 228.6C221.1 228 218.9 228.3 219.4 227.7L219.1 228C218.7 227.6 217.5 227.5 216.6 227.2L216.7 228.1C215.8 228 216 227.5 215.8 227.3C214.7 226.9 214.9 227.7 214.1 227.5C214.8 227.7 214.5 228 214.8 228.3H214.3C213.8 228.7 215 229 214.9 229.4C214.8 229.4 214.7 229.4 214.6 229.4C215.2 229.6 215.8 229.7 216 230V229.8C217.2 230.2 217.9 230.9 219.2 230.5C219.1 230.8 218.9 231 218.8 231.3C217.5 231.2 215.5 231 215.4 230.5L214.9 230.4C214.1 230.8 215.9 231.5 217 231.3C220.1 231.7 217.1 232.6 218.4 233.1C217.5 233.2 217.2 232.8 216.6 232.7C216.5 232.5 216.5 232.4 217.2 232.4C216.7 231.6 214.5 232.6 214.8 231.7C215.2 231.3 216.2 232.3 216.3 231.6L213.9 231.1C214 231.5 214.4 231.9 214.6 232.2C215.4 233.1 215.4 233.9 215.3 234.4C215.2 234.9 214.9 235.3 214.9 235.3L215.2 237.3C215.3 237.9 215.5 238.6 215.6 239.2L216 241.1L216.5 243C217 243.7 216.9 244 219.3 243.9C219.7 243.7 219.5 243.2 220.3 243.2C219.4 243.3 218.9 243.1 218.9 242.6C219.7 242.4 219.4 242.9 219.6 242.8V242.7C220 242.7 220.3 242.7 220.4 242.8C221.6 242.1 221.2 241.4 219.5 241.3C220.3 240.8 220.9 241.3 221.6 241.4C222 240 221.8 239.2 221.7 237.9C220.2 238 220.7 237.9 219.7 237.8L220.2 237.6C219.9 237.7 218.9 237.6 218.6 237.9C219.7 237 216.5 237.2 215.8 236.7H216.6C216.4 236.3 216.4 236.1 216 235.8C217.4 235 216.3 236.4 218.2 236.1L217.9 235.9C218.6 236 220 236 220.5 236.2C219.2 235.6 220.9 235.2 219.9 234.6C220.8 234.6 221.5 235.2 221.6 235.4C221.7 235.2 221 234.8 221.8 234.7H220.7C220.5 234.3 221.7 234.7 222.4 234.5C222.1 233.5 218.8 234.5 218.1 233.7Z" fill="#322015"/>
<path d="M219.8 223.5C219.7 223.6 219.7 223.7 219.8 223.8C219.8 223.8 219.9 223.7 219.8 223.5Z" fill="#322015"/>
<path d="M221.4 225.9C221.5 225.9 221.7 226 221.8 226C221.6 226 221.5 225.9 221.4 225.9Z" fill="#322015"/>
<path d="M222.8 226.4C222.3 226.3 222.3 226.2 221.7 226C222 226.2 222 226.5 222.8 226.4Z" fill="#322015"/>
<path d="M225.7 216.5C226.2 216.8 225.6 216 225.3 215.4C224.9 215.4 225.8 216.1 225.7 216.5Z" fill="#322015"/>
<path d="M223.3 220.4C223.9 220.5 223.3 219.9 223.5 219.7C223 219.6 223 220 223.3 220.4Z" fill="#322015"/>
<path d="M225.3 223.4C225.1 223.2 224.9 223.1 224.8 223.1C224.3 222.8 223.9 222.5 223.4 222.2C222.7 222.3 224.6 223.1 225.3 223.4Z" fill="#322015"/>
<path d="M224.9 225L224.4 224.5L224.3 224.6C223.7 224.3 223.4 224.2 222.9 223.9C223.1 224.3 223.7 224.7 224.9 225Z" fill="#322015"/>
<path d="M222.7 223.6C222.7 223.6 222.7 223.7 222.8 223.7C222.9 223.8 223.2 223.8 222.7 223.6Z" fill="#322015"/>
<path d="M222.7 223.9C222.8 223.9 222.8 224 222.9 224C222.8 223.9 222.8 223.8 222.8 223.8C222.6 223.7 222.5 223.7 222.7 223.9Z" fill="#322015"/>
<path d="M224 225C224 225.2 224 225.4 224 225.6L224.4 225.5C223.4 225.1 225 225.4 224 225Z" fill="#322015"/>
<path d="M222.5 227.7L221.5 227.6C221.2 228 223.3 228.7 221.7 228.7C222.3 228.6 222.8 229.1 223.1 228.7C222.3 228.5 222.3 228 222.5 227.7Z" fill="#322015"/>
<path d="M220.9 229C220.6 228.9 220.4 229 220.1 229C220 229.1 220.4 229.3 220.8 229.3C219.6 229.1 221.7 229.2 220.9 229Z" fill="#322015"/>
<path d="M220.9 230.9C220.9 230.8 220.8 230.6 220.5 230.8C220.5 231.2 221.7 231.1 222.4 231.3C223 231 221.4 230.7 220.9 230.9Z" fill="#322015"/>
<path d="M213.5 234C214.4 233.9 214.2 233.6 213.9 233.5C214.1 233.6 213.9 233.8 213.5 234Z" fill="#322015"/>
<path d="M220.7 233.8L220.9 233.7L219.5 233.6L220.7 233.8Z" fill="#322015"/>
<path d="M221.5 235.9L222.4 236.1L222.2 235.7L221.5 235.9Z" fill="#322015"/>
<path d="M221.3 236.3L221.4 236.7L221.7 236.5C222 236.3 221.3 236.5 221.3 236.3Z" fill="#322015"/>
<path d="M221.6 237.4C221.5 237.4 221.6 237.3 221.8 237.3L221.2 237L221.6 237.4Z" fill="#322015"/>
<path d="M217.1 244.1C216.2 244.2 216.8 244.4 216.7 244.6C216.9 244.6 218 244.2 217.1 244.1Z" fill="#322015"/>
</g>
</g>
<path d="M277.5 205.3C277.5 205.3 294.3 223.1 334 246L357.7 288.1C357.7 288.1 350.9 291.9 349.8 300.3H365.4C365.4 300.3 365.7 276.1 363.3 271.4C361 266.7 340.8 234.6 340.8 234.6C340.8 234.6 300.5 203 298.8 201.1C297.1 199.2 271.7 196.8 277.5 205.3Z" fill="#79B975"/>
<mask id="mask1_37_207" style="mask-type:luminance" maskUnits="userSpaceOnUse" x="276" y="199" width="90" height="102">
<path d="M277.5 205.3C277.5 205.3 294.3 223.1 334 246L357.7 288.1C357.7 288.1 350.9 291.9 349.8 300.3H365.4C365.4 300.3 365.7 276.1 363.3 271.4C361 266.7 340.8 234.6 340.8 234.6C340.8 234.6 300.5 203 298.8 201.1C297.1 199.2 271.7 196.8 277.5 205.3Z" fill="white"/>
</mask>
<g mask="url(#mask1_37_207)">
<g opacity="0.88">
<path d="M297.4 206.5C297.4 206.6 297.4 206.7 297.4 206.8C297.3 206.8 297.3 206.7 297.4 206.5Z" fill="#322015"/>
<path d="M286.5 204L286.4 203.6C286.6 203.8 286.6 203.9 286.5 204Z" fill="#322015"/>
<path d="M295.3 210.1C295.3 210.2 295.2 210.2 295.2 210.2C295.3 210.1 295.3 210.1 295.3 210.1Z" fill="#322015"/>
<path d="M306 212C306 212 306 211.9 306.1 211.9L306 212Z" fill="#322015"/>
<path d="M306.1 213C306.2 213 306.2 213.1 306.2 213.1L306.1 213.2C306 213.3 306.1 213.1 306.1 213Z" fill="#322015"/>
<path d="M305.5 213.1L305.6 213.2C305.5 213.2 305.5 213.2 305.5 213.1Z" fill="#322015"/>
<path d="M305.4 219.7L305.1 220C305.2 219.8 305.3 219.7 305.4 219.7Z" fill="#322015"/>
<path d="M306.2 211.6C306.2 211.7 306.1 211.8 306.1 211.9C306.1 211.8 306 211.7 306.2 211.6Z" fill="#322015"/>
<path d="M297.4 206.4C297.4 206.5 297.4 206.5 297.3 206.6C297.4 206.5 297.4 206.4 297.4 206.4Z" fill="#322015"/>
<path d="M297.6 209.5C297.5 209.4 297.6 209.4 297.6 209.5V209.5Z" fill="#322015"/>
<path d="M282.4 203.8C282.3 203.8 282.2 203.7 282.1 203.7C282.3 203.6 282.4 203.7 282.4 203.8Z" fill="#322015"/>
<path d="M303.4 210.7C302.6 211.5 303.7 211 302.9 211.8C302.9 211.5 302.9 211.2 302.5 211.6C302.2 212.2 302.8 211.8 302.3 212.6V212.1C301.8 212.3 301.5 213 301.5 212.9C302.2 211.8 300.5 212.7 300.5 212.4V212.6L299.8 212.8C299.8 212.8 299.8 212.8 299.8 212.9C299.8 212.8 299.9 212.8 299.9 212.7C299.4 213.1 298.9 213.3 298.7 212.9C299.1 212.2 298 212.1 298.3 211.5C298.3 211.7 298.4 211.8 298.6 211.8L299.1 211.1C298.8 210.9 298.6 211.7 298.7 211.1C299.5 210.2 299.1 211.4 299.3 211.4C299.4 211.1 299.5 210.9 299.4 210.7C299.8 210.9 300.4 210.9 299.9 212C300.2 211.9 300.4 211.5 300.4 211.3C300.2 212.1 301 210.9 300.8 211.6C301.4 210.7 300.6 210.7 300.8 210C299.9 210.4 300 209.4 299.6 209C299.1 209.7 299 210.4 298.5 210.7C297.8 210.9 298.4 210.1 298.4 209.5C298 209.6 297.6 210.6 297.2 210.4V211C296.3 211.8 297.2 210.5 296.9 210.5C297.1 210.3 297.3 210 297.5 210.2C297.8 209.9 297.7 209.6 297.6 209.5H297.7C297.9 209 298.2 208.4 297.8 208.5C297.6 209.2 297.3 208.8 297.1 209V209.2C297 208.9 296.7 208.8 296.7 208.7L296.6 208.9C296.6 208.6 296.9 207.8 296.6 207.8C296.5 208.1 296.3 209.1 296.1 208.8C295.9 209.3 296.1 209.5 296.5 209.4C296.2 209.4 295.7 210.1 295.9 210.3C295.5 210.8 295.8 209.9 295.5 210.1C295.6 209.9 295.7 209.7 295.8 209.5C295.4 210.3 295.2 209.3 295.5 208.7V209.3C295.9 208.7 295.7 208.1 296 207.8C295.4 208.7 295.5 206.9 294.9 207.7L295.2 207.2C294.5 207.2 294.4 205.8 293.9 205.3C294 205.7 293.6 206.9 294.1 206.6C293.4 206.6 293.5 207.7 293.1 208.1C292.5 208.3 293.3 206.9 293.3 206.5L293.5 206.8C293.6 205.3 292.2 206.7 291.8 205.6C291.6 205.9 291.9 205.8 291.9 206C291.4 206.6 291.7 205.8 291.6 205.4C291.2 205.4 290.8 205.7 290.8 206.6C290.4 206.7 291 206.1 290.9 205.8L290.8 206L290.7 204.9C290.3 205.1 289.9 205.5 289.6 206.3C289 206 289.8 204.3 289.3 203.9C288.9 204.3 289.2 204.6 289.2 204.9L288.8 204.7C288.8 205.7 289.2 205.3 289 206.4C288.8 205.2 288.6 206 288.2 205.1V205C288.1 204.2 287.5 204.7 287.2 204.5C287.3 205 287.6 205.1 287.8 205.3C287.4 205.7 286.6 205.2 286.4 204.1C286.2 204.3 285.7 204.7 286 205.1C285.3 205.2 285.8 203.6 285.2 203.9V204.7C284.5 205.8 283.9 203.7 283.3 204.7L283.2 203.7C283.1 204.1 282.8 204.3 282.8 204.7L283.1 205C282.9 205.8 282.8 204.2 282.5 204.8C282.5 204.5 282.7 203.9 282.7 203.5C283.4 203.8 284 203.5 284.7 203.4C285.4 203.3 286.1 203.2 286.7 203.7C286.6 203.8 286.6 203.9 286.6 204.1C286.8 203.9 287 204.2 287 203.6V203.5C287.3 203.8 287.8 202.6 288 202.7C288.1 203.4 288.8 202.5 288.5 203.6L288.8 202.9C288.8 203.3 288.7 203.9 288.8 204.1C289.1 204.1 289.1 203.6 289 203.3C289.5 203.2 290.1 203.2 290.6 203.3C291.1 203.5 291.6 203.7 292 204L291.9 203.4C292.2 203.2 292.5 204.5 292.7 203.2C293 203.9 294.1 203.3 293.7 204.6C294.5 203.4 295 204.5 295.6 204.9C295 205.9 296 205.4 295.9 206C296.4 205.2 295.8 204.9 296 204.3C296 205.1 296.6 205.1 297 205.1C297.5 205.2 297.8 205.4 297.4 206.5C297.5 206.5 297.6 206.4 297.6 206.3C297.7 206.4 298.1 206.1 298.2 206.1C298.1 206.5 297.7 206.5 297.9 206.8C298.2 206.8 298.4 206.2 298.6 206C298.8 206.7 299.3 207.3 298.8 208.2C299.1 208.1 299.5 207.7 299.5 207.5C299.7 208.5 300.2 207.8 300.5 208.6C300.3 208.4 301 207.7 300.4 207.8C301.4 206.9 301.2 208.7 302.1 208.5L301.8 209.3C302 209.6 302.5 209 302.5 208.6C303.3 208.6 303.3 209.2 303.6 209.6C303.7 209.5 303.8 209.4 303.7 209.4C303.9 209.5 304.1 209.7 304.2 209.9C304.1 210.1 304 210.6 303.6 211C303.8 211 303.9 210.7 303.4 210.7Z" fill="#322015"/>
<path d="M296.6 210.7C296.8 210.6 296.9 210.5 296.9 210.5C296.8 210.6 296.7 210.7 296.6 210.7Z" fill="#322015"/>
<path d="M306.7 217.1C305.7 217.9 306.6 216.7 306.1 216.7C306.1 217 305.5 217.5 305.2 217.7C306.3 216.3 304.7 217.6 304.5 216.9C304.1 217.3 304.2 217.5 303.8 218C303.9 217.5 303.7 216.9 304.4 216.3C304 215.9 303.5 215.8 303.4 215.4C303.4 216 302.8 216.1 302.4 216.9C302.9 215.9 303.2 214.3 303.7 212.9C302.9 213.6 302.8 213.6 302.2 214.4C301.2 214.4 302.7 213.6 302 213.3L302.3 213.4C302.3 213 302.9 212.2 303.3 211.7L303.8 212.4C304.3 211.9 303.8 211.6 303.9 211.4C304.3 210.6 304.6 211.3 305 210.7C304.7 211.2 305.1 211.3 305 211.6L305.3 211.4C305.9 211.4 305.3 212.2 305.6 212.5C305.7 212.4 305.8 212.4 305.8 212.3C305.6 212.7 305.3 213.1 305.3 213.4L305.2 213.3C304.7 214.1 304.8 215 303.8 215.4L304.5 215.8C305.2 215.1 306.2 213.9 305.9 213.5L306.2 213.2C306.9 213.1 306.3 214.5 305.5 214.9C303.9 216.8 306.3 215.9 305.9 217C306.4 216.6 306.4 216.2 306.7 215.8C306.6 215.6 306.6 215.5 306.1 215.9C305.9 215.1 307.8 214.6 307 214.1C306.5 214 306.6 215.2 306.1 214.8L307.1 213.2C307.3 213.5 307.4 214 307.4 214.4C307.7 216.5 309.2 216.8 309.2 216.8C310.7 218.8 312 220.8 313.5 222.4C313.8 223 314 223.1 313.2 224.7C312.9 224.9 312.6 224.5 312.3 225.1C312.6 224.5 312.7 224.1 312.3 223.9C311.8 224.4 312.4 224.4 312.2 224.4H312.1C311.9 224.7 311.8 224.9 311.9 225C310.9 225.5 310.3 224.7 311 223.5C310.3 223.7 310.5 224.4 310.3 224.9C308.9 224.3 308.4 223.5 307.5 222.6C308.4 221.8 308 222 308.4 221.4L308 221.6C308.2 221.5 308.7 220.9 309 220.9C307.8 220.9 309.6 219.2 309.6 218.5L309.2 218.9C309 218.5 308.9 218.4 308.9 217.9C307.6 218.1 309.1 218.5 307.9 219.3L308 219C307.6 219.4 307 220.2 306.8 220.6C307.1 219.5 305.9 220.1 306 219.1C305.5 219.6 305.6 220.4 305.6 220.6C305.4 220.5 305.5 219.8 305 220.2L305.6 219.6C305.4 219.2 305 220.1 304.5 220.4C304.4 219 306.9 218 306.7 217.1Z" fill="#322015"/>
<path d="M299.1 210.4C299.2 210.4 299.3 210.5 299.3 210.6C299.2 210.5 299.1 210.5 299.1 210.4Z" fill="#322015"/>
<path d="M299 213.8C299.3 213.5 299.2 213.5 299.4 213C299.4 213.3 299.6 213.5 299 213.8Z" fill="#322015"/>
<path d="M276.5 206.9C276.5 206.5 276.6 205.6 277 206.3C276.6 206.3 277 207.4 276.5 206.9Z" fill="#322015"/>
<path d="M278.7 205.8L278.1 206.4C278.1 207.4 278.5 206.7 278.7 207.1C278.2 207.4 278.3 207 277.8 206.5C277.7 206.6 277.3 206.1 277.1 205.9C278.1 206.4 277.8 204 278.7 205.8Z" fill="#322015"/>
<path d="M277.6 207L277.5 206.6L277.8 206.8L277.6 207Z" fill="#322015"/>
<path d="M280.1 204.4C280.4 203.2 280.9 205 281.3 204.5C281.2 204.4 281.3 204.3 281.2 204.2L281.6 204.3V204C281.6 204.7 282 205 282.2 205.5C281.9 206.3 282 204.6 281.7 205.5C281.8 205.8 281.9 206.3 282 206.6C281.8 206.3 281.7 205.8 281.5 205.4C281.2 205.3 281.4 205.7 281.4 206C281.1 205.6 281 204.6 280.6 204.8C280.4 205.5 280.9 205.8 280.4 205.6C280.5 204.4 279.9 205.8 279.7 205.1C279.4 205.4 279.2 206.1 279.4 206.5C279.3 205.6 278.9 204.9 278.6 204.7L279.3 205.4L279.4 204.3C279.6 204.8 279.8 204.7 280.1 204.4Z" fill="#322015"/>
<path d="M282 206.6C282 206.7 282.1 206.7 282.1 206.8C282.1 206.8 282 206.7 282 206.6Z" fill="#322015"/>
<path d="M279.2 206.9L279.4 207.1L279.3 207.4L279.2 206.9Z" fill="#322015"/>
<path d="M282.3 207.3C282.2 207.3 282.2 207 282.3 207L282.4 207.5L282.3 207.3Z" fill="#322015"/>
<path d="M282.6 206.6L282.8 206L282.9 206.5L282.6 206.6Z" fill="#322015"/>
<path d="M290.3 206.8C290 207.1 290.2 206.4 290.2 205.9C290.7 205.8 290.1 206.5 290.3 206.8Z" fill="#322015"/>
<path d="M294.5 209.3C294.1 209.6 294.1 208.9 293.9 208.8C294.2 208.5 294.5 208.8 294.5 209.3Z" fill="#322015"/>
<path d="M295 212.3C295.1 212.1 295.1 211.9 295.2 211.9L295.6 210.7C296.2 210.5 295.3 211.8 295 212.3Z" fill="#322015"/>
<path d="M296.6 213.6V213L296.8 213.1C297 212.6 297.1 212.4 297.2 212C297.3 212.3 297.2 212.8 296.6 213.6Z" fill="#322015"/>
<path d="M297.1 211.5C297.1 211.5 297.1 211.6 297.2 211.6C297.1 211.8 296.9 211.9 297.1 211.5Z" fill="#322015"/>
<path d="M297.3 211.8C297.3 211.9 297.3 211.9 297.3 211.9C297.3 211.8 297.3 211.7 297.2 211.7C297.3 211.6 297.4 211.5 297.3 211.8Z" fill="#322015"/>
<path d="M297.2 213.2C297.3 213.4 297.5 213.5 297.6 213.7L297.3 213.8C297.7 213.1 296.8 213.9 297.2 213.2Z" fill="#322015"/>
<path d="M300.1 214.7L300.7 214.2C301.1 214.4 300.3 215.9 301.4 215.2C300.9 215.4 301 216.1 300.5 215.9C300.8 215.2 300.4 214.8 300.1 214.7Z" fill="#322015"/>
<path d="M302 215C302.1 214.8 302.3 214.8 302.5 214.6C302.7 214.6 302.5 215 302.2 215.2C302.8 214.4 301.6 215.5 302 215Z" fill="#322015"/>
<path d="M303.3 216.4C303.2 216.3 303.2 216.1 303.4 216.1C303.6 216.4 302.9 216.9 302.7 217.4C302.1 217.5 302.8 216.5 303.3 216.4Z" fill="#322015"/>
<path d="M309.5 214.9C309 215.3 308.8 215 309 214.8C308.9 214.9 309.2 214.9 309.5 214.9Z" fill="#322015"/>
<path d="M305.4 218.5H305.2L305.9 217.8L305.4 218.5Z" fill="#322015"/>
<path d="M306.4 220.5L306.1 221.2L305.9 220.8L306.4 220.5Z" fill="#322015"/>
<path d="M306.8 220.8L307 221.1L306.7 221.2C306.5 221.1 306.9 220.9 306.8 220.8Z" fill="#322015"/>
<path d="M307.4 221.7C307.4 221.6 307.3 221.7 307.2 221.7L307.3 221.2L307.4 221.7Z" fill="#322015"/>
<path d="M314.5 222.9C314.8 222.3 314.8 222.8 315 222.8C314.8 222.9 314.2 223.5 314.5 222.9Z" fill="#322015"/>
</g>
</g>
<path d="M169.6 95.2C169.6 95.2 168.9 77.4 171.2 77.4C173.5 77.4 182.3 95.6 185.7 100.6C189.1 105.6 197.9 116.9 205 125.6C212 134.3 225.7 150.3 245.5 153.6C265.3 156.9 307.3 158.1 323.5 163.8C339.7 169.5 355 184.1 360.6 199C366.3 213.9 373.7 233.8 388.6 243.4C388.6 243.4 367.3 248.3 351.1 231C351.1 231 352.3 237.9 352.5 239.5C352.8 241.1 361.8 253.7 362.4 254.9C363.1 256.1 370.1 285 370.3 286.4C370.6 287.8 368.2 300.5 368.2 300.5C368.2 300.5 355.7 300.5 355 300.5C354.3 300.5 356.8 291.2 362 288.4C362 288.4 352.6 264.4 351.6 263C350.6 261.6 335.1 247 334 246.2C333 245.4 306.5 232.2 294.6 205.4C294.6 205.4 287 203.2 268.8 207C250.6 210.7 225.2 215.2 219.9 215.2C219.9 215.2 222.1 279.9 221.7 281.9C221.3 283.9 213.9 300.6 213.9 300.6C213.9 300.6 200.6 300.6 199.3 300.6C198 300.6 200.8 292.1 209.9 284.8C209.9 284.8 201.7 245.1 200.5 240.2C199.3 235.3 190.5 212.6 190.5 212.6C190.5 212.6 168.6 207.5 158.4 186.4C148.2 165.3 156.8 149.5 153.7 135C153.7 135 131.1 126.3 126.4 123.9C121.7 121.6 111.3 115.4 116.9 104.9C116.9 104.9 139.7 107.4 141.4 107.1C143.1 106.8 147.3 100.8 152.5 98.8C157.9 96.5 169.6 95.2 169.6 95.2Z" fill="#79B975"/>
<path d="M355 300.3C354.3 300.3 356.8 291 362 288.2C362 288.2 352.6 264.2 351.6 262.8C350.6 261.4 335.1 246.8 334 246C333 245.2 306.5 232 294.6 205.2" stroke="#1B1C1E" stroke-width="1.2604" stroke-miterlimit="10" stroke-linecap="round" stroke-linejoin="round"/>
<path d="M220 215C220 215 222.2 279.7 221.8 281.7C221.4 283.7 214 300.4 214 300.4" stroke="#1B1C1E" stroke-width="1.2604" stroke-miterlimit="10" stroke-linecap="round" stroke-linejoin="round"/>
<path d="M349.2 212.2C349.9 219.9 351 230.9 351 230.9C351 230.9 351.3 232.5 351.6 234.3C332.1 237.8 321.3 217.8 316 209.6C310.7 201.4 301.9 184.4 281.6 186.5C261.3 188.7 245.8 206.4 220 201C194.2 195.5 184.9 175.7 184.9 175.7C184.4 178.8 185.4 184.2 185.4 184.2C158.4 163.5 165.2 136.5 166.5 130.4C167.8 124.3 168.5 116.6 165.8 115.4C163.1 114.1 160.7 113.9 159.4 111.5C158.2 109.2 160.4 102.5 157.1 100.7C153.8 98.9 150.3 100 150.3 100C151.1 99.5 151.9 99 152.8 98.7C158 96.6 169.7 95.3 169.7 95.3C169.7 95.3 169 77.5 171.3 77.5C173.7 77.5 182.4 95.7 185.8 100.7C189.2 105.7 198 117 205.1 125.7C212.1 134.4 225.8 150.4 245.6 153.7C265.3 157 307.4 158.2 323.6 163.9C339.8 169.6 355.1 184.2 360.7 199.1C365.5 211.6 371.5 227.7 382.2 238.2C361.2 235.4 352.2 219.1 349.2 212.2Z" fill="#1B291A"/>
<path d="M203.6 300.3C203.6 300.3 204.2 297.7 205.4 296.1" stroke="#1B1C1E" stroke-width="1.2604" stroke-miterlimit="10" stroke-linecap="round" stroke-linejoin="round"/>
<path d="M358.6 300.3C358.6 300.3 359.2 297.7 360.4 296.1" stroke="#1B1C1E" stroke-width="1.2604" stroke-miterlimit="10" stroke-linecap="round" stroke-linejoin="round"/>
<path d="M220 215L219.6 204.6" stroke="#1B1C1E" stroke-width="1.2604" stroke-miterlimit="10" stroke-linecap="round" stroke-linejoin="round"/>
<path d="M115.2 107.6C115 109.4 116.1 111.1 117.9 111.5C118.3 111.6 118.7 111.7 119.1 111.6C122.3 111.4 123.4 106.8 123 105.1C122.9 104.5 117.1 104.1 116.7 104.1C116.4 104.1 115.5 105.5 115.2 107.6Z" fill="#1B1C1E" stroke="#1B1C1E" stroke-width="1.5329" stroke-miterlimit="10" stroke-linecap="round" stroke-linejoin="round"/>
<path d="M118.5 117.9C118.5 117.9 120.8 119.9 127 121.7C133.2 123.5 136.3 123.9 137.4 124.4C138.5 124.9 139.9 126.5 139.9 126.5" stroke="#1B1C1E" stroke-width="1.2604" stroke-miterlimit="10" stroke-linecap="round" stroke-linejoin="round"/>
<path d="M351 230.9C351 230.9 349.2 213 348.8 207" stroke="#1B1C1E" stroke-width="1.2604" stroke-miterlimit="10" stroke-linecap="round" stroke-linejoin="round"/>
<path d="M294.7 205.2C294.7 205.2 292.5 200 291.9 194.4" stroke="#1B1C1E" stroke-width="1.2604" stroke-miterlimit="10" stroke-linecap="round" stroke-linejoin="round"/>
<path d="M151.915 109.419C152.393 108.423 152.135 107.306 151.338 106.923C150.542 106.541 149.509 107.038 149.03 108.033C148.552 109.029 148.81 110.146 149.606 110.529C150.403 110.912 151.436 110.415 151.915 109.419Z" fill="#1B1C1E"/>
<mask id="mask2_37_207" style="mask-type:luminance" maskUnits="userSpaceOnUse" x="153" y="134" width="13" height="11">
<path d="M154.6 145C154.8 141.5 154.6 138.2 153.9 134.9C153.9 134.9 160 137.2 164.3 137.8C167.9 138.3 159.3 144.5 154.6 145Z" fill="white"/>
</mask>
<g mask="url(#mask2_37_207)">
<g opacity="0.88">
<path d="M160.4 136.3L160.3 136.4C160.3 136.4 160.3 136.4 160.4 136.3Z" fill="#322015"/>
<path d="M164.9 137.5L165 137.3C164.9 137.4 164.9 137.4 164.9 137.5Z" fill="#322015"/>
<path d="M159.7 137.3C159.6 137.3 159.6 137.4 159.5 137.5L159.7 137.3Z" fill="#322015"/>
<path d="M160.1 138C160 138.1 160.1 138.1 160.1 138V138Z" fill="#322015"/>
<path d="M155.9 135.2C155.8 135.2 155.8 135.2 155.9 135.2C155.8 135.2 155.8 135.3 155.9 135.2Z" fill="#322015"/>
<path d="M156 135.4C155.9 135.5 155.9 135.5 156 135.4V135.4Z" fill="#322015"/>
<path d="M157.3 135.6C157.2 136.1 157.1 135.6 157 136C157.1 135.9 157.2 135.9 157.2 136.1C157.1 136.3 157 136 156.9 136.4L157.1 136.3C157.1 136.5 157 136.8 157 136.8C157.2 136.3 157.3 137.1 157.5 137H157.4L157.5 137.3V137.2C157.5 137.5 157.6 137.7 157.8 137.7C157.9 137.4 158.3 137.7 158.4 137.5C158.3 137.6 158.3 137.6 158.2 137.5L158.3 137.1C158.4 137.1 158.2 137.4 158.4 137.3C158.5 136.8 158.2 137.3 158.1 137.2C158.2 137.1 158.2 137 158.3 137C158.1 136.9 157.9 136.7 157.7 137.2C157.7 137.1 157.7 136.9 157.8 136.8C157.6 137.1 157.8 136.5 157.6 136.7C157.7 136.2 158 136.5 158.1 136.3C158.2 136.7 158.5 136.4 158.8 136.4C158.7 136.7 158.5 137 158.6 137.2C158.8 137.5 158.8 137.1 159 136.9C159.1 137.1 158.9 137.5 159.1 137.5L158.9 137.7C158.9 138.2 159.1 137.5 159.2 137.7C159.2 137.6 159.2 137.4 159.1 137.4C159.1 137.2 159.2 137.2 159.3 137.2C159.4 137 159.5 136.7 159.6 136.9C159.4 137.2 159.7 137.1 159.7 137.3L159.6 137.4C159.7 137.3 159.8 137.4 159.9 137.4V137.5C160 137.4 160.1 137.1 160.2 137.2C160.2 137.3 159.9 137.7 160.1 137.7C160 137.9 159.9 137.9 159.8 137.8C159.9 137.9 159.9 138.3 159.7 138.3C159.7 138.6 159.9 138.2 159.9 138.4C159.9 138.3 159.9 138.2 160 138.1C159.9 138.5 160.3 138.2 160.3 137.9L160.1 138.1C160.1 137.8 160.4 137.6 160.3 137.5C160.3 138 160.7 137.3 160.7 137.8V137.5C161 137.7 161.3 137.2 161.6 137.2C161.5 137.3 161.4 137.8 161.2 137.6C161.5 137.8 161.2 138.1 161.2 138.4C161.4 138.6 161.4 137.9 161.5 137.8L161.3 137.9C161.6 137.3 161.8 138.1 162.2 137.8C162.2 138 162.1 137.9 162.1 137.9C162.2 138.2 162.2 137.9 162.3 137.8C162.4 137.9 162.6 138 162.4 138.4C162.5 138.5 162.4 138.2 162.5 138.1V138.2L162.7 137.8C162.8 137.9 162.9 138.2 162.9 138.5C163.2 138.5 163.2 137.7 163.4 137.6C163.5 137.8 163.3 137.9 163.3 138H163.5C163.4 138.4 163.2 138.2 163.2 138.7C163.5 138.2 163.5 138.6 163.7 138.3C163.9 138 164.1 138.3 164.2 138.2C164.1 138.4 164 138.4 163.9 138.4C164 138.6 164.4 138.5 164.6 138.1C164.7 138.2 164.8 138.4 164.7 138.5C165 138.6 164.9 137.9 165.2 138.1L165.1 138.4C165.3 138.9 165.7 138.1 165.9 138.5L166 138.1C166 138.3 166.1 138.4 166.1 138.5L165.9 138.6C166 139 166.1 138.3 166.2 138.6C166.2 138.5 166.1 138.2 166.2 138.1C165.6 138.3 165.1 137.6 164.5 137.9C164.5 138 164.5 138 164.5 138.1C164.5 138 164.3 138.1 164.4 137.9C164.2 138 164.2 137.5 164.1 137.4C164 137.7 163.8 137.2 163.8 137.7V137.4C163.7 137.6 163.7 137.8 163.6 137.9C163.5 137.8 163.5 137.7 163.6 137.6C163.2 137.3 162.8 137.3 162.3 137.4L162.4 137.2C162.3 137.1 162 137.5 162.2 137C162 137.2 161.7 136.7 161.6 137.3C161.6 136.7 161.2 137 160.9 137C160.9 137.5 160.6 137.1 160.5 137.3C160.5 136.9 160.8 137 160.9 136.7C160.5 137.2 160.2 136.1 159.9 137.1V137C159.8 137 159.8 136.8 159.8 136.8C159.7 137 159.8 137.1 159.7 137.1C159.6 137 159.7 136.8 159.7 136.6C159.5 136.8 159.1 136.8 159 137.2C159 137.1 158.9 136.8 159 136.8C158.6 137 158.7 136.7 158.3 136.8C158.4 136.8 158.4 136.4 158.6 136.6C158.6 136 158.1 136.6 157.9 136.3L157.7 136.6C157.5 136.6 157.6 136.3 157.7 136.2C157.5 135.9 157.3 136.1 157.1 136.1C157.1 136.1 157.1 136 157.2 136L156.9 135.9C156.9 136 156.7 136.1 156.7 136.4C157.1 135.6 157.2 135.5 157.3 135.6Z" fill="#322015"/>
<path d="M154.2 135.8C154.1 136.4 154.4 135.7 154.5 135.9C154.4 136 154.3 136.3 154.3 136.4C154.6 135.7 154.5 136.6 154.8 136.5C154.8 136.7 154.6 136.7 154.5 137C154.7 136.9 154.9 136.8 155.1 136.4C155.4 136.4 155.5 136.6 155.7 136.6C155.5 136.7 155.6 137 155.4 137.3C155.7 136.9 156.2 136.4 156.6 135.9C156.5 136.3 156.5 136.4 156.4 136.8C156.7 137.2 156.6 136.4 156.8 136.6L156.7 136.5C156.9 136.4 157 136 157.1 135.7H156.7C156.8 135.4 157 135.5 157.1 135.4C157.3 135.1 157 135.1 157.1 134.8C157 135 156.9 134.9 156.8 135V134.8C156.7 134.6 156.5 135 156.4 134.9V134.8C156.3 135 156.2 135.2 156.1 135.2H156.2C156 135.6 155.6 135.7 155.8 136.2L155.5 136C155.6 135.6 155.8 135 156 135L156.1 134.8C156 134.5 155.6 135 155.6 135.4C155.2 136.4 155.1 135.3 154.7 135.7C154.7 135.4 154.9 135.3 155 135.2C155.1 135.2 155.1 135.2 155.1 135.4C155.5 135.3 155.2 134.5 155.6 134.7C155.8 134.9 155.3 135.1 155.5 135.2L155.9 134.5C155.7 134.5 155.5 134.6 155.4 134.6C154.5 134.9 154.1 134.4 154.1 134.4C153 134.3 151.8 134.1 150.7 134C150.3 134 150.2 134 149.9 134.7C149.9 134.9 150.2 134.8 150.1 135.1C150.2 134.8 150.3 134.7 150.5 134.8C150.5 135.1 150.3 134.9 150.3 135C150.3 135.1 150.2 135.2 150.1 135.2C150.2 135.7 150.6 135.6 150.9 135.1C151 135.4 150.7 135.5 150.6 135.7C151.1 136 151.5 136.1 152.1 136.2C152.2 135.7 152.2 135.9 152.4 135.6V135.8C152.4 135.7 152.5 135.4 152.4 135.3C152.7 135.7 152.9 134.7 153.2 134.6L153 135C153.2 135 153.3 135 153.5 134.9C153.7 135.4 153.2 134.9 153.2 135.5L153.3 135.4C153.2 135.6 153.1 136 152.9 136.2C153.3 135.9 153.3 136.4 153.7 136.2C153.6 136.5 153.3 136.6 153.2 136.6C153.3 136.6 153.5 136.5 153.5 136.7L153.6 136.4C153.8 136.4 153.5 136.7 153.5 137C153.9 137.1 153.7 135.9 154.2 135.8Z" fill="#322015"/>
<path d="M157.4 137.9C157.4 137.7 157.5 137.7 157.5 137.6C157.5 137.7 157.4 137.6 157.4 137.9Z" fill="#322015"/>
<path d="M162.9 138C163 138.2 163 137.9 163.1 137.7C163 137.6 163.1 138 162.9 138Z" fill="#322015"/>
<path d="M160.6 138C160.7 138.2 160.9 138 161 138C160.9 137.8 160.8 137.9 160.6 138Z" fill="#322015"/>
<path d="M159.5 138.8C159.6 138.7 159.6 138.7 159.5 138.6L159.7 138.1C159.6 137.9 159.5 138.6 159.5 138.8Z" fill="#322015"/>
<path d="M158.4 138.7L158.6 138.5H158.5C158.6 138.3 158.6 138.2 158.7 138C158.6 138.1 158.4 138.3 158.4 138.7Z" fill="#322015"/>
<path d="M158.9 137.9C158.8 138 158.8 138.1 158.9 137.9V137.9Z" fill="#322015"/>
<path d="M158.8 137.9C158.7 138 158.8 138 158.8 137.9C158.8 138 158.8 138 158.8 137.9Z" fill="#322015"/>
<path d="M158.3 138.4H158L158.1 138.5C158.2 138.2 158.2 138.7 158.3 138.4Z" fill="#322015"/>
<path d="M156.7 137.8V137.5C156.5 137.4 156.1 138 156.1 137.5C156.1 137.7 155.9 137.8 156.1 138C156.3 137.6 156.6 137.6 156.7 137.8Z" fill="#322015"/>
<path d="M156.1 137.1C156.2 137 156.1 136.9 156.1 136.8C156 136.7 155.9 136.9 155.9 137C156.1 136.7 156 137.4 156.1 137.1Z" fill="#322015"/>
<path d="M155.2 137C155.3 137 155.3 137 155.3 136.9C155.1 136.9 155.1 137.3 155 137.4C155.1 137.6 155.3 137.2 155.2 137Z" fill="#322015"/>
<path d="M153.9 136.6V136.7L154.1 136.3L153.9 136.6Z" fill="#322015"/>
</g>
</g>
<path d="M190.7 212.4L188.6 207.4" stroke="#1B1C1E" stroke-width="1.2604" stroke-miterlimit="10" stroke-linecap="round" stroke-linejoin="round"/>
</svg>
