<svg width="133" height="133" viewBox="0 0 133 133" fill="none" xmlns="http://www.w3.org/2000/svg">
<circle cx="66.5" cy="66.5" r="66.5" fill="#79B975"/>
<path d="M90.5625 38.6935C90.5625 37.2072 89.7246 35.8591 88.4355 35.2829C87.1465 34.7068 85.6748 35.0295 84.6865 36.078L80.0029 41.1132C74.8467 46.6438 67.8535 49.7548 60.5596 49.7548H59.625H56.1875H45.875C42.083 49.7548 39 53.0617 39 57.129V68.1903C39 72.2576 42.083 75.5645 45.875 75.5645V90.3129C45.875 92.3523 47.4111 94 49.3125 94H56.1875C58.0889 94 59.625 92.3523 59.625 90.3129V75.5645H60.5596C67.8535 75.5645 74.8467 78.6755 80.0029 84.2061L84.6865 89.2298C85.6748 90.2899 87.1465 90.601 88.4355 90.0248C89.7246 89.4487 90.5625 88.1122 90.5625 86.6143V69.6191C92.5605 68.6051 94 65.8743 94 62.6597C94 59.445 92.5605 56.7142 90.5625 55.7003V38.6935ZM83.6875 47.531V62.6597V77.7883C77.3711 71.6239 69.1318 68.1903 60.5596 68.1903H59.625V57.129H60.5596C69.1318 57.129 77.3711 53.6954 83.6875 47.531Z" fill="black"/>
</svg>
