<svg width="134" height="133" viewBox="0 0 134 133" fill="none" xmlns="http://www.w3.org/2000/svg">
<circle cx="67.0251" cy="66.5" r="66.5" fill="#92e3a9"/>
<g clip-path="url(#clip0_51_87)">
<path d="M73.9001 49.3125H60.1501L55.0583 41.6748C54.2956 40.5254 55.112 39 56.487 39H77.5632C78.9382 39 79.7546 40.5254 78.9919 41.6748L73.9001 49.3125ZM60.1501 52.75H73.9001C74.3083 53.0186 74.7702 53.3193 75.2966 53.6523C81.3874 57.5518 94.5251 65.9522 94.5251 83.6875C94.5251 89.3809 89.906 94 84.2126 94H49.8376C44.1443 94 39.5251 89.3809 39.5251 83.6875C39.5251 65.9522 52.6628 57.5518 58.7536 53.6523C59.2693 53.3193 59.7419 53.0186 60.1501 52.75ZM69.1736 62.2031C69.1736 61.0215 68.2068 60.0547 67.0251 60.0547C65.8435 60.0547 64.8767 61.0215 64.8767 62.2031V63.707C64.0603 63.8897 63.2439 64.1797 62.4919 64.6201C60.9988 65.5117 59.7097 67.0693 59.7204 69.3359C59.7312 71.5166 61.0095 72.8916 62.3738 73.708C63.5554 74.417 65.0271 74.8682 66.198 75.2119L66.3806 75.2656C67.7341 75.6738 68.7224 75.9961 69.3884 76.415C69.9363 76.7588 70.0114 76.9951 70.0222 77.2959C70.0329 77.833 69.8288 78.1553 69.3884 78.4238C68.8513 78.7568 68.0027 78.9609 67.0896 78.9287C65.8972 78.8857 64.78 78.5098 63.3191 78.0156C63.072 77.9297 62.8142 77.8438 62.5456 77.7578C61.4177 77.3818 60.2038 77.9941 59.8279 79.1113C59.4519 80.2285 60.0642 81.4531 61.1814 81.8291C61.3855 81.8936 61.6111 81.9688 61.8366 82.0547C62.7282 82.3662 63.7595 82.7207 64.8659 82.957V84.5469C64.8659 85.7285 65.8327 86.6953 67.0144 86.6953C68.196 86.6953 69.1628 85.7285 69.1628 84.5469V83.0645C70.0222 82.8818 70.8816 82.5811 71.655 82.0977C73.1911 81.1416 74.3513 79.5088 74.3191 77.2637C74.2868 75.083 73.0622 73.6758 71.6765 72.7949C70.4411 72.0215 68.8943 71.5488 67.6911 71.1836L67.6159 71.1621C66.2409 70.7432 65.2634 70.4424 64.5759 70.0342C64.0173 69.7012 64.0066 69.5078 64.0066 69.3145C64.0066 68.917 64.157 68.6162 64.6726 68.3154C65.2527 67.9717 66.1335 67.7676 66.9821 67.7783C68.0134 67.7891 69.1521 68.0147 70.3337 68.3369C71.4831 68.6377 72.654 67.9609 72.9655 66.8115C73.2771 65.6621 72.5896 64.4912 71.4402 64.1797C70.7419 63.9971 69.9685 63.8145 69.1736 63.6748V62.2031Z" fill="black"/>
</g>
<defs>
<clipPath id="clip0_51_87">
<rect width="55" height="55" fill="white" transform="translate(39.5251 39)"/>
</clipPath>
</defs>
</svg>
