<svg width="133" height="133" viewBox="0 0 133 133" fill="none" xmlns="http://www.w3.org/2000/svg">
<circle cx="66.5" cy="66.5" r="66.5" fill="#92e3a9"/>
<g clip-path="url(#clip0_51_84)">
<path d="M96.3104 67.5797C98.2583 67.5797 99.9771 65.9937 99.9771 63.9434C100.092 62.9238 99.6333 62.0176 98.7167 61.2246L69.4635 35.793C68.776 35.2266 67.8594 35 67.0573 35C66.2552 35 65.3385 35.1133 64.5365 35.9062L35.1458 61.2246C34.3438 62.0176 34 62.9238 34 63.9434C34 65.9824 35.6042 67.5797 37.6667 67.5797H41.3333V85.75C41.3333 89.7488 44.6219 93 48.6667 93H85.3906C89.4583 93 92.7469 89.7375 92.724 85.716L92.6437 67.5684H96.3104V67.5797ZM63.3333 58.5625C63.3333 57.5656 64.1583 56.75 65.1667 56.75H68.8333C69.8417 56.75 70.6667 57.5656 70.6667 58.5625V64H76.1667C77.175 64 78 64.8156 78 65.8125V69.4375C78 70.4344 77.175 71.25 76.1667 71.25H70.6667V76.6875C70.6667 77.6844 69.8417 78.5 68.8333 78.5H65.1667C64.1583 78.5 63.3333 77.6844 63.3333 76.6875V71.25H57.8333C56.825 71.25 56 70.4344 56 69.4375V65.8125C56 64.8156 56.825 64 57.8333 64H63.3333V58.5625Z" fill="black"/>
</g>
<defs>
<clipPath id="clip0_51_84">
<rect width="66" height="58" fill="white" transform="translate(34 35)"/>
</clipPath>
</defs>
</svg>
