<svg width="133" height="133" viewBox="0 0 133 133" fill="none" xmlns="http://www.w3.org/2000/svg">
<circle cx="66.5" cy="66.5" r="66.5" fill="#92e3a9"/>
<g clip-path="url(#clip0_51_85)">
<path d="M87.1499 65.6095V65.9769L93.5754 58.2173C95.5943 55.7792 95.5943 51.8382 93.5754 49.4001L86.3755 40.7165C84.3566 38.2784 81.0932 38.2784 79.0743 40.7165L75.3776 45.1808C75.1287 45.1474 74.8705 45.1251 74.6124 45.1251H64.2874C60.8673 45.1251 58.0555 48.2423 57.6868 52.2501H57.6499V65.6095C57.6499 68.0698 59.3001 70.0626 61.3374 70.0626C63.3748 70.0626 65.0249 68.0698 65.0249 65.6095V57.5938V57.5827V55.8126H66.4999H79.0374C79.0374 55.8126 79.0374 55.8126 79.0466 55.8126H79.7749C83.8496 55.8126 87.1499 59.7981 87.1499 64.7189V65.6095ZM67.9749 59.3751V65.6095C67.9749 70.0403 65.0065 73.6251 61.3374 73.6251C57.6684 73.6251 54.6999 70.0403 54.6999 65.6095V52.406C51.3904 53.0962 48.634 56.0019 47.6937 59.9985L46.1726 66.411L39.4245 74.5603C37.4056 76.9983 37.4056 80.9394 39.4245 83.3774L46.6243 92.0722C48.6432 94.5103 51.9066 94.5103 53.9256 92.0722L57.401 87.8751C57.484 87.8751 57.567 87.8862 57.6499 87.8862H72.3999C74.8429 87.8862 76.8249 85.4927 76.8249 82.5425C76.8249 81.919 76.7327 81.3179 76.576 80.7612H76.8249C79.2679 80.7612 81.2499 78.3677 81.2499 75.4175C81.2499 73.9925 80.789 72.7011 80.033 71.7437C82.4023 71.187 84.1907 68.671 84.1999 65.6429V65.5983C84.1907 62.1694 81.886 59.3862 79.0374 59.3862H67.9749V59.3751Z" fill="black"/>
</g>
<defs>
<clipPath id="clip0_51_85">
<rect width="59" height="57" fill="white" transform="translate(36.9999 38)"/>
</clipPath>
</defs>
</svg>
